<?xml version="1.0" standalone="no"?>
<!DOCTYPE svg PUBLIC "-//W3C//DTD SVG 20010904//EN"
 "http://www.w3.org/TR/2001/REC-SVG-20010904/DTD/svg10.dtd">
<svg version="1.0" xmlns="http://www.w3.org/2000/svg"
 width="280.000000pt" height="280.000000pt" viewBox="0 0 280.000000 280.000000"
 preserveAspectRatio="xMidYMid meet">

<g transform="translate(0.000000,280.000000) scale(0.100000,-0.100000)"
fill="#000000" stroke="none">
<path d="M1387 2654 c-18 -23 -18 -34 -7 -167 6 -78 14 -145 16 -149 3 -4 -13
-8 -34 -8 -26 0 -39 4 -38 13 2 21 -26 202 -33 210 -4 4 -15 1 -24 -6 -17 -12
-17 -17 3 -102 11 -49 26 -95 32 -102 8 -10 4 -13 -18 -13 -17 0 -24 3 -17 8
9 6 6 30 -11 97 -19 77 -25 90 -42 87 -10 -2 -20 -5 -22 -7 -2 -2 6 -36 18
-77 12 -40 24 -81 26 -90 4 -14 -1 -18 -21 -18 -21 0 -26 -4 -21 -16 3 -9 9
-27 12 -40 7 -29 14 -29 122 -7 78 15 89 15 161 0 42 -10 84 -17 93 -17 14 0
38 45 38 71 0 5 -28 9 -62 9 -35 0 -58 4 -52 8 6 4 22 49 35 100 24 93 24 94
4 108 -25 19 -29 9 -46 -119 -8 -60 -17 -97 -24 -97 -9 0 -7 26 6 93 24 119
24 150 -1 172 -18 17 -19 16 -24 -6 -3 -13 -8 -77 -12 -141 -3 -67 -10 -118
-16 -118 -6 0 -8 21 -4 53 3 28 8 97 11 152 5 87 3 103 -12 122 l-18 22 -18
-25z"/>
<path d="M1330 2592 l-22 -18 18 -117 c14 -97 20 -117 33 -114 9 2 15 7 15 13
-1 5 -5 63 -9 129 -4 66 -8 121 -10 123 -1 1 -12 -6 -25 -16z"/>
<path d="M1571 2492 c-42 -163 -41 -152 -17 -152 18 0 24 11 44 83 27 98 27
93 2 100 -16 4 -22 -2 -29 -31z"/>
<path d="M1130 2511 c0 -28 64 -171 76 -171 19 0 18 15 -9 95 -17 49 -29 70
-45 76 -12 5 -22 4 -22 0z"/>
<path d="M1658 2513 c-11 -3 -26 -32 -42 -81 -30 -90 -31 -92 -11 -92 9 0 20
12 26 28 45 116 57 152 51 151 -4 -1 -15 -3 -24 -6z"/>
<path d="M949 2448 c-1 -7 -3 -23 -4 -35 -1 -12 1 -22 4 -21 22 2 23 -4 2 -15
-27 -14 -27 -34 1 -29 10 2 18 -3 18 -11 0 -29 -69 -37 -91 -11 -11 14 -10 18
5 29 18 13 15 35 -5 35 -5 0 -23 14 -40 31 -33 34 -48 34 -60 1 -6 -15 -3 -26
9 -38 15 -16 17 -16 23 7 6 22 7 22 14 6 6 -15 10 -16 16 -5 7 10 9 10 9 0 0
-14 -47 -35 -60 -27 -8 5 -20 -17 -20 -36 0 -5 11 -9 25 -9 18 0 25 -5 25 -19
0 -21 -47 -64 -64 -58 -17 6 -18 27 -1 27 9 0 15 6 13 13 -6 17 -39 22 -48 6
-5 -6 -21 -13 -36 -15 -19 -2 -24 0 -15 5 7 5 10 14 7 20 -4 6 -3 11 3 11 5 0
11 -5 13 -12 2 -6 9 -8 16 -4 6 3 9 13 6 21 -4 8 -10 12 -15 9 -5 -3 -9 0 -9
5 0 6 -5 11 -11 11 -5 0 -7 -4 -4 -10 3 -5 2 -10 -4 -10 -5 0 -12 6 -14 13 -3
6 -6 -4 -6 -23 -1 -19 -4 -45 -7 -58 -6 -19 -3 -23 12 -20 24 4 30 -25 9 -46
-26 -26 -54 -21 -52 10 2 20 -3 27 -19 30 -12 2 -27 -3 -34 -11 -10 -12 -9
-15 4 -15 9 0 16 -4 16 -9 0 -6 -15 -7 -34 -4 -30 5 -35 2 -50 -28 -9 -18 -14
-40 -11 -49 6 -19 46 -40 73 -40 13 1 10 6 -10 21 -16 11 -28 27 -28 34 0 19
35 28 75 21 44 -9 79 9 101 50 16 29 22 33 56 31 39 -1 82 28 93 65 5 14 10
16 25 8 35 -19 80 -12 110 18 26 27 29 27 58 14 38 -18 80 -9 91 21 12 30 6
32 -18 8 -25 -25 -40 -26 -67 -7 -19 15 -19 15 1 30 20 14 20 15 -5 24 -20 7
-26 6 -32 -7 -5 -11 -7 -8 -7 11 -1 34 -49 66 -52 36z m12 -21 c-10 -9 -11 -8
-5 6 3 10 9 15 12 12 3 -3 0 -11 -7 -18z m-151 3 c0 -5 -4 -10 -10 -10 -5 0
-10 5 -10 10 0 6 5 10 10 10 6 0 10 -4 10 -10z m180 -31 c0 -6 -4 -7 -10 -4
-5 3 -10 11 -10 16 0 6 5 7 10 4 6 -3 10 -11 10 -16z m-380 -191 c0 -11 -12
-10 -30 2 -12 7 -10 9 8 7 12 0 22 -5 22 -9z"/>
<path d="M1814 2437 c-16 -13 -38 -27 -48 -31 -19 -6 -19 -7 0 -20 15 -12 16
-16 5 -30 -18 -22 -43 -20 -69 4 l-22 21 0 -21 c0 -32 41 -46 88 -31 37 13 40
12 66 -14 25 -25 32 -27 81 -21 47 5 54 4 60 -13 10 -34 42 -53 85 -53 35 1
42 -3 55 -29 24 -44 55 -61 106 -54 29 4 50 1 61 -7 20 -15 15 -26 -22 -51
-28 -20 -9 -24 35 -7 35 13 40 34 20 76 -16 33 -20 36 -51 31 -19 -3 -34 -2
-34 4 0 5 7 9 16 9 13 0 14 3 4 15 -7 8 -22 13 -34 11 -16 -3 -21 -10 -19 -30
2 -32 -25 -36 -52 -6 -22 24 -14 50 14 43 22 -6 29 11 10 22 -5 4 -9 17 -8 28
3 44 -1 63 -10 48 -7 -11 -9 -11 -14 0 -5 11 -9 10 -20 -4 -8 -10 -28 -22 -43
-26 -30 -8 -45 -31 -20 -31 9 0 16 -7 16 -15 0 -29 -51 -10 -70 26 -15 28 5
55 27 37 13 -10 14 -8 11 12 -2 16 -13 27 -37 35 -19 6 -37 17 -39 23 -2 7 2
10 12 6 9 -3 16 -1 16 5 0 6 5 11 11 11 6 0 8 -8 5 -18 -4 -13 -1 -18 12 -18
14 0 18 7 17 26 -2 29 -12 50 -25 50 -4 0 -29 -20 -56 -45 -31 -29 -41 -45
-31 -45 22 0 22 -36 1 -44 -25 -10 -59 -7 -72 6 -20 20 -14 31 13 24 27 -7 34
11 14 32 -7 6 -12 25 -13 43 -1 41 -16 46 -52 16z m210 -13 c9 -24 2 -26 -12
-4 -7 11 -8 20 -3 20 5 0 12 -7 15 -16z m-200 -15 c11 17 26 13 19 -6 -4 -11
-3 -14 5 -9 7 4 12 2 12 -4 0 -7 -7 -9 -16 -6 -9 3 -22 6 -30 6 -8 0 -14 8
-14 18 0 13 2 14 9 3 6 -9 11 -10 15 -2z m313 -113 c-3 -8 -1 -17 6 -20 9 -3
9 -5 0 -5 -15 -1 -26 16 -18 29 9 15 18 12 12 -4z m-27 -12 c0 -8 -4 -12 -10
-9 -5 3 -10 10 -10 16 0 5 5 9 10 9 6 0 10 -7 10 -16z m105 -74 c3 -5 1 -10
-4 -10 -6 0 -11 5 -11 10 0 6 2 10 4 10 3 0 8 -4 11 -10z m85 -39 c0 -5 -9 -7
-20 -4 -11 3 -20 7 -20 9 0 2 9 4 20 4 11 0 20 -4 20 -9z"/>
<path d="M1010 2305 c0 -8 5 -15 10 -15 6 0 10 7 10 15 0 8 -4 15 -10 15 -5 0
-10 -7 -10 -15z"/>
<path d="M1786 2313 c-11 -11 -6 -23 9 -23 8 0 15 4 15 9 0 13 -16 22 -24 14z"/>
<path d="M900 2215 c-129 -52 -233 -97 -230 -102 3 -4 10 -6 15 -5 6 2 7 0 2
-4 -8 -8 21 -44 36 -44 10 0 448 169 455 175 10 9 -11 45 -26 46 -11 0 -12 3
-4 6 6 2 12 9 12 14 0 16 -19 9 -260 -86z m220 55 c-8 -5 -19 -10 -25 -10 -5
0 -3 5 5 10 8 5 20 10 25 10 6 0 3 -5 -5 -10z"/>
<path d="M1650 2302 c0 -5 12 -13 28 -19 l27 -11 -31 5 c-26 4 -32 1 -37 -18
-3 -13 -5 -24 -4 -25 9 -6 447 -174 454 -174 5 0 22 13 38 30 l28 29 -24 10
c-13 5 -122 48 -242 95 -222 87 -237 92 -237 78z m90 -42 c8 -5 11 -10 5 -10
-5 0 -17 5 -25 10 -8 5 -10 10 -5 10 6 0 17 -5 25 -10z m50 -20 c8 -5 11 -10
5 -10 -5 0 -17 5 -25 10 -8 5 -10 10 -5 10 6 0 17 -5 25 -10z m50 -20 c8 -5
11 -10 5 -10 -5 0 -17 5 -25 10 -8 5 -10 10 -5 10 6 0 17 -5 25 -10z"/>
<path d="M862 2249 c2 -6 8 -10 13 -10 5 0 11 4 13 10 2 6 -4 11 -13 11 -9 0
-15 -5 -13 -11z"/>
<path d="M1922 2248 c6 -18 28 -21 28 -4 0 9 -7 16 -16 16 -9 0 -14 -5 -12
-12z"/>
<path d="M1195 2179 c-110 -38 -251 -88 -312 -110 l-113 -41 0 -54 c0 -72 26
-254 56 -394 53 -247 126 -413 253 -576 68 -89 251 -274 304 -308 l27 -18 58
48 c184 156 352 367 421 531 76 178 151 531 151 706 l0 66 -57 21 c-91 35
-574 200 -581 199 -4 0 -97 -32 -207 -70z m728 -139 l87 -32 0 -47 c0 -73 -27
-259 -56 -388 -72 -322 -180 -513 -420 -742 -64 -61 -120 -111 -125 -111 -14
0 -139 112 -208 186 -158 169 -257 343 -315 555 -40 146 -73 329 -82 457 l-7
89 49 18 c27 9 163 57 303 105 l255 87 215 -72 c119 -40 255 -87 304 -105z"/>
<path d="M1119 2096 c-146 -51 -271 -96 -277 -100 -36 -22 29 -428 102 -636
32 -90 83 -182 155 -280 58 -79 198 -224 267 -278 l41 -31 64 53 c188 155 345
373 407 566 52 161 102 426 102 543 0 58 0 58 -37 74 -73 30 -524 183 -541
182 -9 0 -137 -42 -283 -93z m562 -21 c150 -52 275 -95 277 -95 8 0 -9 -162
-28 -275 -44 -258 -97 -405 -202 -562 -67 -99 -224 -270 -296 -322 l-34 -23
-132 133 c-189 192 -268 319 -330 536 -35 121 -71 315 -80 436 l-6 67 33 16
c27 12 499 179 518 183 4 0 130 -42 280 -94z"/>
<path d="M1349 1991 l-34 -31 40 2 c30 2 41 8 43 22 7 36 -15 39 -49 7z"/>
<path d="M1420 1990 c0 -29 2 -30 43 -30 l42 0 -25 21 c-52 41 -60 43 -60 9z"/>
<path d="M1260 1985 l-45 -24 36 -1 c28 0 40 6 53 25 20 31 13 31 -44 0z"/>
<path d="M1510 1985 c15 -16 34 -25 54 -25 31 1 31 1 -14 25 -58 31 -69 31
-40 0z"/>
<path d="M1610 1980 c14 -11 34 -20 44 -20 25 0 20 4 -29 24 l-40 16 25 -20z"/>
<path d="M1165 1975 c-23 -11 -25 -14 -10 -14 11 0 29 6 39 14 24 18 11 18
-29 0z"/>
<path d="M1042 1885 l-57 -55 46 0 c45 0 48 2 77 47 54 83 15 87 -66 8z"/>
<path d="M1179 1928 c-19 -15 -69 -82 -69 -91 0 -4 27 -7 61 -7 58 0 60 1 74
33 26 62 24 72 -15 75 -19 2 -42 -3 -51 -10z"/>
<path d="M1303 1932 c-10 -6 -43 -82 -43 -99 0 -2 30 -3 68 -1 l67 3 3 38 c2
21 -2 45 -9 53 -12 15 -66 19 -86 6z"/>
<path d="M1427 1934 c-4 -4 -7 -29 -7 -56 l0 -48 66 0 66 0 -7 28 c-15 62 -28
77 -70 80 -23 2 -44 0 -48 -4z"/>
<path d="M1554 1927 c-2 -7 2 -30 9 -52 l14 -40 61 -3 c34 -2 62 0 62 4 0 14
-43 75 -63 89 -26 18 -76 20 -83 2z"/>
<path d="M1678 1935 c-3 -4 8 -29 24 -56 29 -47 33 -49 74 -49 24 0 44 4 44 8
0 4 -19 26 -42 49 -41 40 -86 61 -100 48z"/>
<path d="M966 1798 c-2 -7 -9 -28 -15 -47 -14 -44 -8 -51 44 -51 49 0 61 12
66 70 l4 35 -48 3 c-32 2 -48 -1 -51 -10z"/>
<path d="M1091 1787 c-5 -13 -11 -36 -13 -53 l-3 -29 64 -3 c35 -2 68 1 72 5
5 5 12 30 15 56 l7 47 -67 0 c-60 0 -67 -2 -75 -23z"/>
<path d="M1257 1803 c-3 -4 -7 -28 -8 -53 l-4 -45 75 0 75 0 0 50 0 50 -67 3
c-36 2 -68 -1 -71 -5z"/>
<path d="M1422 1758 l3 -53 64 -3 c35 -2 68 1 73 6 5 5 6 30 3 56 l-7 46 -70
0 -69 0 3 -52z"/>
<path d="M1586 1801 c-3 -4 -2 -28 2 -52 l8 -44 69 0 70 0 -2 30 c-5 73 -8 75
-78 75 -35 0 -66 -4 -69 -9z"/>
<path d="M1750 1781 c0 -16 4 -41 10 -55 8 -23 15 -26 54 -26 25 0 47 4 50 9
3 4 0 28 -7 52 -13 43 -14 44 -60 47 -46 3 -47 3 -47 -27z"/>
<path d="M944 1658 c4 -13 9 -35 12 -50 6 -26 10 -28 61 -28 47 0 54 2 49 18
-2 9 -7 32 -11 50 -6 31 -7 32 -62 32 -53 0 -55 -1 -49 -22z"/>
<path d="M1074 1663 c2 -10 7 -33 11 -50 l7 -33 69 0 c76 0 76 1 63 69 l-6 31
-75 0 c-66 0 -74 -2 -69 -17z"/>
<path d="M1244 1665 c3 -9 6 -32 6 -51 l0 -35 73 3 72 3 0 45 0 45 -79 3 c-69
3 -78 1 -72 -13z"/>
<path d="M1420 1630 l0 -50 69 0 68 0 7 38 c10 64 12 62 -69 62 l-75 0 0 -50z"/>
<path d="M1590 1653 c0 -16 -3 -38 -6 -50 -6 -22 -4 -23 65 -23 77 0 75 -1 86
63 l6 37 -76 0 -75 0 0 -27z"/>
<path d="M1756 1649 c-13 -65 -10 -69 43 -69 l49 0 11 44 c6 25 11 47 11 50 0
3 -24 6 -54 6 -52 0 -54 -1 -60 -31z"/>
<path d="M990 1552 c0 -4 22 -29 48 -55 33 -33 56 -47 75 -47 15 0 27 3 27 8
0 4 -16 28 -35 55 -32 42 -39 47 -75 47 -22 0 -40 -4 -40 -8z"/>
<path d="M1110 1549 c0 -6 14 -30 30 -55 29 -41 34 -44 75 -44 51 0 56 13 31
75 -15 34 -16 35 -75 35 -37 0 -61 -4 -61 -11z"/>
<path d="M1260 1546 c0 -9 7 -34 16 -56 l17 -41 51 3 51 3 0 50 0 50 -67 3
c-56 2 -68 0 -68 -12z"/>
<path d="M1420 1505 l0 -55 50 0 c54 0 62 9 77 83 l6 27 -67 0 -66 0 0 -55z"/>
<path d="M1569 1533 c-6 -16 -13 -40 -16 -55 -5 -27 -4 -28 40 -28 42 0 47 3
80 47 19 26 33 51 31 55 -3 5 -32 8 -65 8 -56 0 -60 -2 -70 -27z"/>
<path d="M1710 1516 c-37 -55 -38 -66 -2 -66 20 0 41 13 75 48 26 27 44 51 41
55 -4 4 -24 7 -45 7 -34 0 -42 -5 -69 -44z"/>
<path d="M1160 1410 c45 -25 61 -25 31 0 -13 11 -33 20 -45 20 -17 -1 -14 -4
14 -20z"/>
<path d="M1210 1426 c0 -9 103 -57 108 -51 3 3 -5 16 -18 30 -16 17 -34 25
-57 25 -18 0 -33 -2 -33 -4z"/>
<path d="M1344 1395 c42 -37 60 -35 54 6 -3 21 -9 24 -48 27 l-45 2 39 -35z"/>
<path d="M1418 1418 c-3 -7 -2 -23 1 -36 l6 -23 37 28 c21 15 37 31 38 36 0
12 -78 8 -82 -5z"/>
<path d="M1511 1403 c-12 -14 -19 -28 -17 -30 2 -2 30 9 62 26 l59 30 -42 1
c-33 0 -46 -5 -62 -27z"/>
<path d="M1620 1410 c-31 -24 -17 -24 35 0 35 16 37 19 15 19 -14 0 -36 -8
-50 -19z"/>
<path d="M1276 1175 c-31 -64 -56 -118 -56 -121 0 -2 8 -4 19 -4 13 0 28 22
54 80 20 44 38 80 41 80 2 0 19 -26 36 -57 43 -78 57 -92 96 -99 43 -8 79 1
104 26 39 39 17 55 -27 20 -57 -45 -94 -21 -162 103 l-48 89 -57 -117z"/>
<path d="M1443 1254 c-36 -18 -49 -45 -34 -71 6 -10 11 -12 11 -5 1 42 92 71
120 37 13 -16 50 -21 50 -7 0 5 -11 18 -24 31 -31 29 -83 36 -123 15z"/>
<path d="M722 2189 c2 -6 8 -10 13 -10 5 0 11 4 13 10 2 6 -4 11 -13 11 -9 0
-15 -5 -13 -11z"/>
<path d="M2067 2194 c-8 -8 1 -24 14 -24 5 0 9 7 9 15 0 15 -12 20 -23 9z"/>
<path d="M570 2116 c0 -9 7 -16 16 -16 17 0 14 22 -4 28 -7 2 -12 -3 -12 -12z"/>
<path d="M2217 2124 c-8 -8 1 -24 14 -24 5 0 9 7 9 15 0 15 -12 20 -23 9z"/>
<path d="M420 1949 c-62 -26 -98 -91 -85 -157 l8 -37 10 30 c14 42 45 73 84
84 34 10 84 1 108 -19 9 -7 23 -6 49 5 31 13 34 18 25 33 -34 54 -140 86 -199
61z"/>
<path d="M2265 1946 c-16 -8 -42 -27 -58 -43 l-27 -29 36 -18 c34 -16 38 -16
62 0 32 21 92 23 127 4 16 -8 36 -33 46 -55 14 -32 19 -36 25 -22 11 31 -3 98
-28 124 -46 50 -122 66 -183 39z"/>
<path d="M430 1853 c-31 -13 -64 -63 -75 -113 -4 -19 -14 -48 -22 -64 -13 -25
-14 -42 -4 -113 16 -111 5 -131 -133 -236 -24 -19 -36 -36 -36 -52 0 -36 -41
-59 -100 -56 -26 1 -51 -2 -55 -8 -3 -6 1 -11 9 -11 20 0 20 -16 1 -69 -13
-38 -6 -56 12 -28 5 7 10 -5 13 -33 l5 -45 17 30 17 30 1 -28 c0 -16 -5 -37
-11 -49 -13 -25 -5 -35 16 -18 8 7 15 9 15 6 0 -12 -32 -70 -48 -88 -14 -16
-13 -18 2 -18 10 0 34 16 53 35 20 20 38 34 40 31 3 -3 0 -26 -5 -53 -13 -58
-9 -65 13 -22 13 24 16 51 13 106 l-3 75 19 -24 19 -23 -8 25 c-4 14 -18 42
-31 62 -26 40 -32 60 -12 40 26 -26 29 -10 4 22 -21 29 -23 36 -11 46 11 9 17
6 30 -13 9 -14 32 -36 50 -49 45 -30 49 -43 29 -98 l-17 -46 57 -54 c31 -29
56 -61 56 -70 0 -10 8 -21 17 -24 12 -5 14 -9 5 -18 -9 -9 -8 -16 5 -30 25
-28 33 -22 33 29 0 44 -3 50 -60 105 -33 32 -60 65 -60 73 0 20 7 19 40 -7 15
-13 51 -35 79 -50 35 -19 51 -34 51 -48 0 -11 5 -20 10 -20 6 0 10 -10 10 -23
0 -26 17 -47 38 -47 11 0 13 7 8 28 -4 15 -10 40 -13 55 -3 17 -16 33 -35 43
-16 8 -46 30 -66 48 -36 33 -37 36 -34 97 3 89 32 198 53 204 25 8 75 62 89
95 6 16 24 34 40 40 15 6 38 22 50 35 18 19 27 22 41 14 23 -12 14 -39 -12
-39 -14 0 -19 -7 -19 -29 0 -43 17 -47 50 -11 25 27 33 30 45 20 17 -14 20
-46 5 -55 -5 -3 -7 -12 -4 -19 3 -7 -2 -16 -10 -19 -13 -5 -14 -11 -4 -32 14
-30 38 -33 38 -5 0 12 7 34 15 51 13 23 13 34 4 52 -23 43 -60 85 -99 112
l-40 28 33 16 c36 19 48 10 40 -29 -3 -17 1 -31 11 -39 14 -12 16 -7 16 52 l0
65 -77 -5 c-76 -6 -99 -12 -77 -20 6 -2 20 -11 30 -19 17 -13 16 -13 -11 0
-33 16 -109 100 -118 131 -4 11 -2 27 3 35 9 13 12 12 25 -4 8 -11 15 -29 15
-39 0 -15 3 -17 13 -8 10 7 17 7 24 0 17 -17 25 5 13 36 -22 59 -15 71 63 105
51 22 62 30 37 25 -109 -18 -111 -18 -123 -1 -13 18 -81 30 -107 19z m-80
-772 c-5 -11 -15 -23 -21 -27 -6 -3 -3 5 6 20 20 30 30 35 15 7z"/>
<path d="M2287 1840 c-26 -20 -32 -21 -91 -11 -89 16 -90 14 -11 -18 67 -27
70 -30 73 -64 2 -20 -1 -45 -7 -55 -13 -25 -4 -34 20 -21 14 7 19 6 20 -3 0
-7 6 3 13 22 17 46 46 53 46 11 0 -35 -74 -123 -125 -147 -27 -13 -28 -13 -11
0 10 8 24 17 30 19 23 9 -2 15 -74 18 l-75 4 -1 -71 c-1 -57 -6 -78 -24 -102
-17 -23 -21 -38 -16 -59 4 -15 10 -43 13 -60 6 -40 29 -43 46 -6 9 21 9 27 -1
31 -6 2 -12 12 -12 23 0 10 -4 19 -10 19 -14 0 -12 36 3 48 17 14 54 -2 62
-27 9 -29 23 -26 36 5 11 29 9 32 -22 48 -25 13 -29 30 -8 34 25 5 115 -60
135 -96 21 -38 78 -92 98 -92 9 0 15 -17 18 -48 3 -26 16 -74 31 -105 27 -60
28 -76 2 -29 -16 27 -16 26 -11 -26 5 -50 4 -54 -32 -87 -20 -19 -49 -40 -65
-47 -19 -9 -29 -23 -33 -46 -4 -18 -10 -34 -14 -37 -4 -2 -5 -16 -2 -30 4 -25
5 -25 23 -9 11 9 19 28 19 41 0 12 5 23 10 23 6 0 10 7 10 16 0 21 19 36 93
74 54 29 66 44 50 66 -5 5 3 -1 17 -13 l24 -23 -62 -63 c-53 -54 -63 -69 -68
-110 -7 -50 2 -60 31 -31 12 12 13 19 4 30 -9 11 -8 15 5 20 9 3 16 14 16 24
0 10 25 40 55 65 59 51 63 63 40 119 l-15 36 59 59 c41 40 63 55 70 48 7 -7 4
-18 -9 -35 -24 -30 -25 -43 -4 -35 15 6 15 4 1 -18 -9 -13 -23 -42 -32 -64
l-16 -40 19 24 20 24 -5 -70 c-4 -54 -1 -78 12 -107 23 -47 27 -42 16 20 -5
27 -8 50 -7 52 2 1 19 -13 39 -33 19 -19 43 -35 52 -35 14 0 14 3 -4 29 -11
15 -25 40 -31 55 -9 24 -8 26 9 16 29 -15 31 -13 15 18 -7 15 -14 38 -14 52
l1 25 17 -27 c23 -38 28 -35 23 14 -3 37 -1 41 11 30 13 -10 15 -3 14 54 l-1
65 -46 -2 c-53 -3 -83 14 -92 53 -5 17 -33 48 -77 83 -101 81 -104 86 -96 203
6 79 4 103 -8 127 -9 17 -16 37 -16 45 -1 17 -50 120 -50 105 0 -5 -4 -4 -9 3
-4 8 -26 16 -47 19 -30 4 -45 0 -67 -17z m-131 -332 c-17 -15 -33 -27 -36 -28
-3 0 -4 19 -2 43 l4 44 33 -16 33 -16 -32 -27z"/>
<path d="M1803 617 c-23 -10 -31 -27 -13 -27 6 0 10 -25 10 -55 0 -54 0 -55
-28 -53 -62 5 -122 -48 -122 -107 0 -57 65 -103 120 -83 16 6 26 6 28 -1 2 -6
15 -8 30 -5 32 8 53 24 30 24 -20 0 -33 129 -23 235 4 40 3 75 -1 78 -5 2 -19
0 -31 -6z m-22 -157 c16 -9 19 -22 19 -75 0 -55 -3 -65 -20 -70 -72 -23 -121
95 -57 140 25 18 32 18 58 5z"/>
<path d="M703 598 c-6 -7 -35 -75 -63 -150 -42 -110 -56 -138 -71 -138 -11 0
-19 -4 -19 -10 0 -5 23 -10 52 -10 46 0 50 2 34 13 -17 13 -18 17 -4 58 13 40
18 44 51 47 45 4 50 22 6 22 -33 0 -34 6 -2 80 l16 35 37 -115 c35 -105 37
-115 22 -127 -14 -10 -8 -12 41 -13 31 0 57 4 57 10 0 6 -7 10 -15 10 -19 0
-25 13 -75 160 -24 69 -46 129 -50 133 -4 4 -12 2 -17 -5z"/>
<path d="M1200 578 c-54 -15 -98 -54 -111 -97 -28 -93 33 -185 126 -191 96 -7
135 8 135 52 0 20 -1 20 -23 -4 -46 -50 -114 -49 -162 2 -22 23 -29 41 -33 82
-5 67 9 103 50 128 49 30 93 26 130 -10 16 -16 31 -30 32 -30 8 0 -9 62 -18
65 -34 10 -95 12 -126 3z"/>
<path d="M923 486 c-14 -14 -19 -26 -13 -32 5 -5 10 -43 12 -84 l3 -75 44 0
c24 0 46 5 48 10 2 6 -9 11 -24 10 -28 0 -28 1 -31 67 -3 66 -3 67 24 70 40 4
43 28 5 28 -21 0 -31 5 -31 15 0 20 -10 17 -37 -9z"/>
<path d="M1485 481 c-50 -15 -75 -48 -75 -101 0 -66 51 -104 119 -89 48 11 71
41 71 94 0 26 -7 51 -17 64 -21 24 -69 40 -98 32z m54 -37 c28 -35 28 -97 1
-124 -27 -27 -44 -25 -69 6 -28 35 -28 97 -1 124 27 27 44 25 69 -6z"/>
<path d="M2151 476 c-15 -8 -20 -16 -12 -20 6 -4 11 -35 11 -73 0 -51 -4 -69
-17 -79 -16 -12 -11 -13 37 -13 48 0 53 1 38 13 -14 10 -18 28 -18 81 l0 68
30 -7 c23 -4 32 -2 37 10 9 24 -18 36 -44 18 -20 -13 -23 -13 -23 1 0 18 -8
18 -39 1z"/>
<path d="M1949 467 c-44 -34 -52 -110 -16 -152 27 -33 87 -37 118 -9 27 25 24
38 -6 18 -14 -9 -32 -13 -44 -9 -26 8 -61 52 -61 76 0 17 8 19 65 19 57 0 65
2 65 18 0 44 -81 70 -121 39z m65 -3 c33 -13 17 -34 -24 -34 -42 0 -52 12 -22
29 20 12 25 13 46 5z"/>
</g>
</svg>
