<?xml version="1.0" encoding="UTF-8"?>
<svg version="1.1" xmlns="http://www.w3.org/2000/svg" width="100" height="100">
<path d="M0 0 C2.475 0.495 2.475 0.495 5 1 C4.30895595 6.89492774 2.319151 12.24636281 0.359375 17.8125 C-0.00468445 18.85841309 -0.3687439 19.90432617 -0.74383545 20.98193359 C-1.90803375 24.32288741 -3.07897121 27.66143501 -4.25 31 C-5.02256737 33.21469312 -5.79470708 35.42953546 -6.56640625 37.64453125 C-10.33341809 48.44547808 -14.12520038 59.23720256 -18 70 C-19.65 69.67 -21.3 69.34 -23 69 C-22.30895595 63.10507226 -20.319151 57.75363719 -18.359375 52.1875 C-17.99531555 51.14158691 -17.6312561 50.09567383 -17.25616455 49.01806641 C-16.09196625 45.67711259 -14.92102879 42.33856499 -13.75 39 C-12.97743263 36.78530688 -12.20529292 34.57046454 -11.43359375 32.35546875 C-7.66658191 21.55452192 -3.87479962 10.76279744 0 0 Z " fill="#FFFFFF" transform="translate(59,15)"/>
<path d="M0 0 C3.83822262 1.52145762 5.71669764 3.79236536 8.25 7 C9.02730469 7.97582031 9.80460937 8.95164062 10.60546875 9.95703125 C11.39566406 10.96121094 12.18585938 11.96539062 13 13 C14.51982532 14.89664152 16.04058245 16.79253694 17.5625 18.6875 C18.70896699 20.12449468 19.8550516 21.56179506 21 23 C19.63146141 27.06960159 17.81892472 29.58458283 14.875 32.6875 C10.31856191 37.59840977 6.12150729 42.7217754 2 48 C0.68 47.34 -0.64 46.68 -2 46 C-1.41209818 42.84233598 -0.49911757 41.09151635 1.65234375 38.72265625 C2.18150391 38.12646484 2.71066406 37.53027344 3.25585938 36.91601562 C3.81080078 36.30435547 4.36574219 35.69269531 4.9375 35.0625 C9.93751154 29.64422603 9.93751154 29.64422603 13 23 C11.87851563 21.67935547 11.87851563 21.67935547 10.734375 20.33203125 C9.73954698 19.158885 8.74475735 17.98570618 7.75 16.8125 C7.25886719 16.23435547 6.76773438 15.65621094 6.26171875 15.06054688 C5.29246839 13.91683145 4.32586917 12.77086351 3.36206055 11.62255859 C2.12413388 10.14787485 0.87702041 8.68091524 -0.37109375 7.21484375 C-2 5 -2 5 -1.8125 2.75 C-1 1 -1 1 0 0 Z " fill="#FFFFFF" transform="translate(79,26)"/>
<path d="M0 0 C1.32 0.66 2.64 1.32 4 2 C3.41209818 5.15766402 2.49911757 6.90848365 0.34765625 9.27734375 C-0.44608398 10.17163086 -0.44608398 10.17163086 -1.25585938 11.08398438 C-1.81080078 11.69564453 -2.36574219 12.30730469 -2.9375 12.9375 C-7.93751154 18.35577397 -7.93751154 18.35577397 -11 25 C-10.25234375 25.88042969 -9.5046875 26.76085937 -8.734375 27.66796875 C-7.73954698 28.841115 -6.74475735 30.01429382 -5.75 31.1875 C-5.01330078 32.0547168 -5.01330078 32.0547168 -4.26171875 32.93945312 C-3.29246209 34.08317598 -2.32594259 35.22922465 -1.36230469 36.37768555 C-0.12424187 37.8520453 1.12478418 39.31718147 2.375 40.78125 C4 43 4 43 3.75 45.3125 C3.5025 45.869375 3.255 46.42625 3 47 C-1 47 -1 47 -3.55078125 44.47265625 C-4.4843911 43.34662043 -5.4043191 42.20914357 -6.3125 41.0625 C-6.79162842 40.47146484 -7.27075684 39.88042969 -7.7644043 39.27148438 C-8.7291775 38.07819095 -9.68928222 36.88110701 -10.64453125 35.68017578 C-11.84310687 34.1944774 -13.09013897 32.74815708 -14.34375 31.30859375 C-14.9934375 30.54675781 -15.643125 29.78492187 -16.3125 29 C-16.88613281 28.34 -17.45976562 27.68 -18.05078125 27 C-19 25 -19 25 -18.42578125 22.54296875 C-16.84902573 19.73072808 -15.09366673 17.6509902 -12.875 15.3125 C-8.31856191 10.40159023 -4.12150729 5.2782246 0 0 Z " fill="#FFFFFF" transform="translate(19,26)"/>
</svg>
