<?xml version="1.0" standalone="no"?>
<!DOCTYPE svg PUBLIC "-//W3C//DTD SVG 20010904//EN"
 "http://www.w3.org/TR/2001/REC-SVG-20010904/DTD/svg10.dtd">
<svg version="1.0" xmlns="http://www.w3.org/2000/svg"
 width="1300.000000pt" height="1283.000000pt" viewBox="0 0 1300.000000 1283.000000"
 preserveAspectRatio="xMidYMid meet">

<g transform="translate(0.000000,1283.000000) scale(0.100000,-0.100000)"
fill="#000000" stroke="none">
<path d="M9816 12773 c17 -15 77 -69 135 -119 312 -273 650 -657 863 -980 l47
-71 -11 -84 c-13 -106 -13 -324 0 -409 13 -81 60 -240 72 -240 4 0 8 -8 8 -17
0 -15 2 -16 10 -3 8 12 10 12 10 1 0 -8 3 -11 7 -7 5 4 0 14 -10 21 -18 13
-17 14 10 28 22 12 33 13 49 4 12 -7 19 -17 17 -24 -2 -6 1 -15 8 -19 8 -5 9
-3 4 6 -5 9 -4 11 4 6 14 -9 5 -26 -14 -26 -9 0 -12 -6 -8 -16 4 -12 7 -13 14
-3 4 8 12 10 16 5 4 -5 2 -11 -5 -13 -7 -3 -18 -11 -26 -18 -11 -11 -13 -6
-12 28 1 32 -3 42 -16 45 -13 2 -18 -3 -18 -17 0 -12 -6 -21 -15 -21 -8 0 -15
-6 -15 -14 0 -7 7 -19 15 -26 8 -7 15 -19 15 -27 0 -20 31 -64 41 -58 4 3 12
-10 18 -30 5 -19 23 -53 40 -74 39 -48 39 -56 2 -36 -16 8 -54 24 -85 35 -54
21 -55 22 -122 138 -190 331 -419 631 -713 932 l-102 105 94 -115 c281 -344
452 -604 612 -931 l72 -148 6 -133 c3 -73 13 -167 22 -208 37 -166 125 -351
218 -455 42 -48 48 -58 40 -81 l-9 -26 -79 62 c-44 35 -131 115 -194 179 -63
63 -108 104 -101 91 49 -92 192 -280 301 -395 l70 -74 9 -93 c28 -286 126
-537 287 -735 67 -83 35 -62 -63 40 -106 109 -167 192 -234 319 -56 105 -62
104 -24 -4 51 -141 138 -293 237 -411 l40 -49 -11 -51 c-19 -89 -25 -173 -13
-193 6 -11 11 -13 11 -6 0 6 10 11 23 11 16 -1 18 -2 5 -6 -10 -2 -18 -12 -18
-21 0 -15 2 -15 10 -2 12 19 12 -10 0 -130 -4 -49 -4 -89 1 -95 5 -5 9 21 10
65 0 41 4 98 9 125 5 34 6 16 3 -60 -2 -60 -6 -121 -9 -133 -3 -15 -1 -21 6
-17 5 3 10 1 10 -4 0 -6 9 -11 20 -11 11 0 20 5 20 12 0 17 17 -3 23 -27 4
-19 5 -18 6 2 0 12 -6 29 -16 38 -14 15 -15 27 -5 110 13 99 14 171 2 95 l-7
-45 -1 41 c-2 28 4 48 18 64 20 23 23 23 73 11 185 -47 349 -207 402 -396 29
-100 34 -106 34 -40 0 33 -6 91 -14 129 -8 38 -13 71 -12 73 2 1 14 -16 27
-40 23 -40 25 -53 32 -292 3 -137 5 -251 4 -253 -2 -1 -40 25 -85 59 -84 63
-174 159 -226 241 -17 26 -33 47 -37 48 -20 1 66 -221 122 -311 16 -27 26 -49
21 -49 -14 0 -111 109 -146 165 -42 65 -99 179 -115 230 -7 22 -19 48 -28 57
-8 10 -16 36 -18 60 -2 23 -8 46 -14 52 -6 6 -6 -2 0 -24 7 -24 6 -36 -1 -41
-8 -4 -5 -16 10 -35 26 -37 19 -70 -21 -90 -17 -9 -27 -11 -24 -5 4 6 2 11 -3
11 -6 0 -11 -5 -11 -11 0 -5 -5 -7 -11 -3 -12 7 -11 -6 6 -66 6 -19 0 -15 -25
18 -17 23 -35 42 -38 42 -4 0 -20 25 -36 55 -16 30 -35 55 -42 55 -8 0 -14 9
-14 19 0 10 -9 29 -20 42 -23 29 -26 18 -4 -16 9 -13 13 -29 10 -34 -8 -12 37
-114 93 -209 l42 -72 -26 -49 c-34 -67 -72 -205 -92 -326 -25 -162 -12 -411
32 -579 12 -46 -55 94 -82 174 -37 103 -51 163 -68 277 l-12 88 -2 -137 c-1
-152 11 -235 60 -394 l32 -102 -21 -34 c-96 -155 -172 -405 -172 -565 0 -97
-17 -55 -35 88 -17 135 -17 248 0 374 9 68 -12 6 -37 -108 -20 -89 -23 -131
-23 -333 l0 -231 -60 -65 c-149 -159 -276 -414 -319 -643 -8 -44 -19 -102 -24
-130 -17 -88 -14 255 3 392 8 67 17 130 20 140 3 10 -2 3 -10 -15 -40 -86 -94
-320 -115 -497 -12 -98 -13 -101 -48 -129 -70 -55 -187 -182 -238 -256 -65
-95 -131 -217 -122 -225 3 -4 42 4 85 18 l78 24 55 81 c76 112 149 190 160
173 4 -8 21 -46 36 -85 15 -39 29 -72 30 -74 1 -2 52 13 114 33 l112 37 -7 41
c-38 235 -13 464 75 677 47 114 172 316 189 306 4 -3 13 -1 21 4 21 13 58 -9
53 -31 -3 -11 0 -19 6 -19 7 0 9 5 5 12 -4 7 -3 8 4 4 19 -12 14 -23 -12 -28
-17 -4 -23 -1 -19 8 3 8 -3 17 -13 21 -11 3 -22 11 -25 15 -3 5 -5 -7 -4 -28
2 -21 9 -41 18 -46 10 -5 14 -16 11 -26 -5 -13 -4 -14 4 -4 7 11 11 10 17 -5
5 -10 9 -22 9 -28 1 -5 6 -10 11 -10 6 0 13 -20 16 -45 3 -25 15 -74 25 -110
27 -92 25 -306 -3 -407 -11 -40 -18 -73 -16 -73 1 0 14 23 28 50 14 28 27 50
30 50 6 0 -42 -135 -61 -172 -8 -15 -14 -31 -14 -36 0 -5 64 11 143 37 100 32
154 55 181 77 21 18 55 34 76 38 21 3 47 9 57 12 17 5 16 4 -1 -10 -11 -9 -15
-16 -9 -16 6 0 103 30 215 66 375 121 362 117 400 110 44 -8 94 -61 103 -109
6 -31 -2 -58 -86 -275 -15 -40 -1 -23 35 42 66 119 126 287 146 414 9 54 19
73 74 145 159 206 291 474 340 687 l6 25 -11 -25 c-119 -257 -142 -298 -238
-430 -110 -152 -241 -280 -287 -280 -4 0 31 39 77 88 233 241 404 552 450 818
6 37 32 109 57 163 82 175 150 414 176 616 l5 40 -11 -35 c-78 -256 -153 -431
-246 -575 -49 -77 -55 -82 -143 -129 l-92 -49 79 90 c179 202 299 435 360 698
27 114 27 425 0 539 l-18 79 25 66 c55 142 84 287 92 451 l5 105 -15 -80 c-21
-107 -51 -216 -82 -295 -33 -83 -105 -209 -137 -239 -21 -20 -18 -8 25 91 54
127 102 295 124 444 20 132 19 355 -1 467 -16 85 -15 90 5 167 41 149 52 238
51 410 -1 232 -14 291 -22 95 -7 -165 -37 -309 -97 -458 -37 -93 -67 -139
-155 -232 l-66 -70 35 75 c50 111 102 292 121 421 22 150 15 413 -15 542 -34
148 -101 309 -171 412 -25 37 -28 50 -33 171 -4 72 -14 171 -22 220 -16 96
-71 299 -87 324 -7 11 -8 8 -4 -10 4 -14 13 -70 22 -125 21 -133 16 -435 -7
-479 -15 -28 -16 -23 -16 95 0 147 -15 243 -55 359 -38 107 -61 152 -136 267
-72 108 -176 221 -276 298 -58 44 -80 69 -114 129 -252 452 -598 904 -968
1266 l-107 105 109 -125 c353 -403 599 -767 840 -1243 l85 -168 -12 -95 c-6
-52 -15 -94 -20 -94 -5 0 -9 6 -9 14 0 8 -13 46 -29 85 -123 302 -364 511
-684 592 l-86 22 -129 161 c-290 361 -583 646 -947 920 -71 54 -116 85 -99 69z
m1341 -1344 c87 -33 175 -84 242 -138 119 -96 230 -283 276 -465 31 -121 31
-156 1 -61 -23 71 -64 157 -110 230 -31 49 -31 48 -7 -57 31 -130 35 -220 17
-325 -15 -86 -47 -187 -66 -207 -16 -16 -126 59 -216 149 -93 92 -168 193
-222 300 -31 62 -78 203 -70 210 2 3 24 -23 48 -58 46 -65 163 -193 192 -208
10 -6 4 11 -18 43 -73 110 -134 265 -154 388 -13 83 -13 230 0 230 5 0 44 -14
87 -31z m943 -604 c157 -199 233 -440 216 -690 -12 -167 -23 -197 -24 -63 -1
120 -24 316 -30 248 -15 -189 -63 -369 -137 -507 -49 -93 -132 -206 -145 -198
-21 13 -148 439 -138 465 2 5 26 -25 53 -65 28 -41 53 -74 57 -75 3 0 -9 32
-28 71 -19 40 -47 106 -61 148 -22 68 -25 87 -20 176 3 67 14 128 31 184 40
130 147 391 158 385 5 -3 36 -39 68 -79z m-1100 -12 c-1 -18 -19 -35 -29 -28
-9 5 -7 11 6 21 21 16 23 16 23 7z m49 -46 c0 -8 -3 -7 -6 2 -3 8 -12 -1 -23
-25 -17 -35 -18 -36 -17 -12 1 15 4 25 8 22 4 -2 9 6 12 17 6 21 28 18 26 -4z
m1 -59 c-1 -34 -3 -39 -11 -25 -5 9 -7 22 -3 29 4 7 3 8 -4 4 -16 -9 -15 7 0
22 17 17 18 16 18 -30z m74 -363 c222 -58 367 -157 438 -300 14 -28 28 -63 32
-79 4 -15 9 -26 13 -23 11 12 -20 151 -46 203 -29 56 -26 64 13 39 27 -18 39
-43 61 -135 20 -83 71 -238 101 -312 13 -32 24 -60 24 -63 0 -14 -121 -3 -177
17 -91 32 -212 135 -236 201 -2 7 -7 10 -10 7 -9 -9 40 -138 72 -185 17 -25
31 -48 31 -50 0 -10 -98 57 -155 105 -90 76 -170 175 -216 268 -40 82 -89 248
-89 303 0 37 16 37 144 4z m1480 -667 c52 -167 60 -218 60 -383 0 -173 -18
-284 -68 -439 -33 -99 -106 -270 -112 -263 -2 2 7 46 20 98 21 81 57 324 55
369 0 8 -19 -39 -43 -105 -24 -66 -55 -146 -69 -177 -57 -128 -167 -269 -253
-329 l-42 -28 -16 57 c-28 100 -46 260 -51 452 l-6 185 25 -82 c14 -45 33 -97
41 -115 l15 -33 -5 34 c-31 202 -25 292 25 399 39 84 80 138 215 282 59 63
119 132 133 152 15 21 30 38 34 38 3 0 22 -51 42 -112z m-1213 -279 c269 -86
452 -243 499 -426 8 -32 9 -27 6 35 -3 61 -10 87 -43 153 -44 88 -41 91 45 40
l44 -26 -1 -125 c-2 -114 9 -291 25 -414 6 -47 6 -48 -17 -41 -108 33 -257
116 -393 222 l-49 38 37 -60 c21 -33 54 -79 73 -102 19 -24 30 -43 26 -43 -11
0 -113 112 -164 180 -109 145 -201 373 -225 558 l-7 53 29 -7 c16 -4 68 -19
115 -35z m1396 -1111 c-19 -307 -179 -690 -363 -868 l-57 -55 45 65 c60 86
122 210 158 319 39 116 38 128 -6 55 -54 -90 -110 -158 -194 -237 -74 -69
-207 -159 -222 -150 -5 2 -8 41 -8 86 0 238 60 597 99 597 5 0 1 -25 -10 -55
-25 -70 -33 -159 -21 -210 l10 -40 1 46 c3 114 70 230 185 315 62 46 361 222
380 223 5 1 6 -39 3 -91z m-1318 -835 c222 -166 370 -394 371 -568 0 -56 19
-25 21 35 l1 45 13 -50 c23 -87 18 -136 -30 -297 -25 -84 -47 -153 -49 -155
-2 -2 -35 30 -73 71 -80 83 -140 178 -178 281 -15 39 -29 72 -32 75 -12 11 8
-190 26 -260 10 -41 18 -76 16 -78 -8 -9 -77 133 -104 213 -50 149 -64 256
-58 440 4 144 21 275 35 275 3 0 21 -12 41 -27z m1321 -130 c0 -63 -24 -250
-40 -314 -71 -276 -249 -562 -458 -732 -57 -47 -164 -117 -177 -117 -2 0 24
29 59 64 113 115 215 272 281 431 18 45 18 45 -54 -47 -112 -144 -276 -274
-433 -343 l-58 -25 0 29 c0 150 166 655 243 739 35 38 36 24 2 -45 -33 -66
-65 -172 -65 -209 1 -11 11 6 24 37 54 129 173 270 306 360 70 47 337 188 358
189 6 0 12 -8 12 -17z m-1378 -1005 c68 -107 125 -282 129 -393 l1 -30 10 30
c5 17 11 83 11 148 l2 119 23 -50 c30 -66 41 -133 31 -186 -4 -24 -30 -102
-58 -173 -27 -71 -60 -164 -72 -206 -13 -42 -25 -77 -29 -77 -19 0 -136 223
-186 355 l-19 50 -3 -75 c-1 -42 1 -115 6 -163 4 -48 5 -87 2 -87 -10 0 -60
139 -75 212 -43 202 -25 412 52 627 l26 75 58 -62 c32 -34 73 -85 91 -114z
m1087 -330 c-86 -219 -281 -481 -462 -621 -82 -64 -195 -137 -211 -137 -4 0
20 28 54 63 58 57 187 217 176 217 -3 0 -37 -24 -76 -53 -135 -102 -285 -175
-398 -193 -52 -8 -53 0 -18 104 73 213 264 552 312 552 11 0 3 -15 -25 -47
-44 -49 -93 -128 -110 -178 l-11 -30 18 25 c37 55 130 144 192 185 116 76 227
114 430 145 166 26 153 29 129 -32z m-1449 -404 c0 -24 -5 -46 -12 -50 -7 -5
-9 -2 -6 7 3 9 -3 26 -13 40 -25 33 -24 50 2 19 17 -21 19 -22 10 -3 -14 28
-14 30 4 30 11 0 15 -12 15 -43z"/>
<path d="M3325 12678 c-419 -302 -766 -599 -1049 -901 -112 -119 -121 -127
-165 -132 -244 -34 -430 -123 -591 -285 -104 -104 -167 -199 -224 -338 -18
-46 -36 -85 -38 -88 -3 -3 -11 39 -18 91 l-12 97 77 131 c212 361 529 794 834
1137 186 209 109 140 -167 -150 -285 -300 -529 -601 -756 -933 -61 -88 -101
-137 -132 -158 -105 -72 -242 -228 -324 -369 -83 -144 -150 -370 -150 -509 0
-51 -4 -64 -26 -86 -14 -14 -28 -25 -30 -23 -2 2 -8 60 -13 128 -11 138 -2
320 24 459 9 46 14 85 12 87 -7 7 -66 -197 -87 -299 -25 -124 -41 -332 -34
-434 6 -77 6 -79 -39 -168 -167 -334 -202 -722 -94 -1046 18 -54 32 -99 30
-99 -8 0 -74 145 -101 220 -54 154 -67 236 -67 435 0 172 0 177 -13 115 -7
-36 -15 -135 -18 -220 -7 -177 7 -297 52 -445 15 -49 27 -101 27 -115 -1 -14
-15 -63 -31 -110 -43 -123 -56 -215 -56 -385 0 -170 17 -284 63 -419 16 -47
26 -84 21 -81 -4 3 -33 47 -63 97 -80 135 -127 254 -153 391 l-14 72 6 -89 c9
-149 58 -314 146 -490 l40 -79 -20 -101 c-74 -370 -1 -746 203 -1057 l55 -84
-82 85 c-128 133 -213 273 -274 454 -39 114 -38 74 1 -79 47 -180 136 -352
263 -508 l59 -72 2 -80 c2 -149 48 -332 121 -491 39 -84 130 -233 155 -254 8
-7 15 -17 15 -23 0 -15 -118 102 -185 184 -72 87 -165 241 -206 339 -18 44
-34 78 -36 76 -7 -7 58 -191 96 -272 72 -154 169 -289 317 -444 68 -72 72 -78
79 -135 6 -56 34 -185 41 -194 2 -2 13 8 25 23 25 31 69 56 101 56 21 0 117
-30 711 -222 137 -44 250 -78 252 -76 2 1 -10 41 -26 88 -33 99 -34 119 -10
179 l18 45 8 -65 8 -64 18 100 c21 116 48 201 94 300 42 89 48 112 35 120 -6
4 -11 1 -9 -6 1 -8 1 -21 0 -29 -1 -12 -4 -11 -12 3 -10 17 -12 17 -28 2 -17
-14 -20 -14 -41 3 -16 13 -20 21 -12 26 7 4 12 1 12 -8 0 -9 9 -16 20 -16 11
0 20 5 20 10 0 6 7 10 15 10 10 0 14 7 11 23 -3 12 -5 35 -5 50 -1 23 -3 26
-15 15 -7 -7 -13 -17 -13 -23 0 -5 -1 -19 -2 -30 -1 -16 -3 -17 -11 -5 -5 9
-5 19 2 27 6 7 7 13 3 13 -4 0 -14 -8 -21 -17 -7 -10 -15 -15 -18 -12 -3 3 15
24 40 46 50 46 59 41 52 -26 -2 -23 1 -37 7 -35 6 3 9 25 6 52 -2 26 -1 44 3
41 3 -3 6 -29 7 -57 1 -29 5 -55 9 -57 4 -2 31 25 59 61 l53 66 36 -53 c84
-126 162 -335 198 -534 9 -49 18 -165 21 -256 l5 -165 114 -36 114 -35 42 73
c24 41 47 72 53 71 5 -2 35 -51 68 -110 l59 -106 79 -26 c44 -15 83 -24 86
-21 10 10 -105 232 -176 337 -38 57 -96 136 -129 174 -55 65 -66 87 -152 307
-52 131 -95 236 -97 234 -2 -1 24 -125 58 -273 l62 -270 -18 -67 c-10 -36 -20
-64 -22 -62 -2 2 -8 48 -14 102 -34 369 -139 643 -327 857 l-69 78 -12 127
c-12 134 -41 278 -86 427 -33 108 -48 131 -29 43 38 -182 45 -543 11 -603 -17
-30 -17 -29 -11 60 13 196 -32 538 -91 703 -22 62 -25 85 -25 210 0 130 -21
355 -39 411 -4 14 -8 -30 -9 -105 0 -71 -10 -194 -22 -273 -21 -152 -26 -164
-99 -251 l-29 -35 24 85 c14 47 37 141 51 210 24 111 27 147 27 320 0 179 -3
203 -27 294 -14 54 -41 129 -59 168 -29 63 -31 73 -19 101 38 97 74 217 76
257 2 25 6 55 10 68 4 12 5 22 2 22 -3 0 -11 -17 -18 -37 -6 -20 -16 -42 -21
-47 -5 -6 -30 -56 -57 -111 -47 -96 -108 -192 -117 -182 -2 2 18 60 45 128 66
166 66 166 42 174 -23 7 -32 27 -21 45 7 11 11 11 24 0 23 -18 28 -8 32 52 1
29 0 40 -2 23 -10 -68 -14 -77 -27 -63 -15 16 -20 65 -7 73 5 3 7 -8 5 -26 -2
-18 0 -28 4 -23 15 16 19 100 6 117 -10 14 -12 13 -13 -13 0 -16 -8 -40 -16
-52 l-16 -22 0 27 c0 20 4 26 13 21 6 -4 9 -4 5 1 -4 4 -3 14 3 21 7 9 5 14
-11 19 -11 3 -18 11 -14 16 13 22 13 57 -1 62 -20 8 -34 -61 -14 -74 12 -8 12
-11 -1 -19 -13 -8 -13 -11 -1 -19 11 -7 10 -11 -7 -22 -16 -10 -19 -20 -15
-43 8 -41 19 -52 38 -36 19 16 19 1 0 -24 -8 -11 -15 -14 -15 -8 0 7 -7 12
-16 12 -11 0 -13 -6 -9 -19 7 -22 -13 -40 -25 -22 -10 18 -21 -1 -59 -104 -46
-124 -127 -283 -200 -393 -34 -50 -66 -94 -71 -97 -5 -3 13 36 40 87 43 82
105 248 125 333 4 20 -18 -7 -66 -79 -70 -106 -233 -285 -306 -335 l-32 -22
-12 38 c-17 56 -24 348 -10 443 14 95 42 182 61 188 9 3 11 -1 5 -14 -28 -66
-34 -97 -34 -164 -1 -41 4 -82 9 -90 7 -11 10 3 10 45 1 155 118 269 381 368
64 24 124 49 135 55 18 11 18 11 0 12 -12 0 -16 5 -12 16 3 9 6 18 6 20 0 2
11 2 25 -2 14 -4 25 -2 25 4 0 14 30 8 40 -7 4 -8 12 -11 18 -7 11 7 25 -35
14 -44 -4 -3 -9 -16 -11 -30 l-3 -25 19 24 c17 21 18 29 8 57 -12 37 -25 54
-25 35 0 -7 -5 -9 -10 -6 -6 4 -8 11 -4 16 7 11 -34 8 -54 -5 -7 -4 -16 -6
-19 -3 -11 12 42 29 74 24 35 -6 72 -40 72 -67 0 -9 -6 -4 -14 10 -11 19 -14
21 -15 8 0 -10 9 -27 20 -38 22 -22 26 -40 10 -40 -5 0 -10 7 -10 17 0 9 -3
13 -6 10 -4 -4 -1 -21 7 -39 7 -18 14 -37 15 -43 0 -5 2 -19 3 -30 5 -41 31
83 33 162 2 46 6 83 11 83 4 0 7 7 7 16 0 8 -5 12 -10 9 -15 -9 -12 4 5 21 9
10 15 34 15 66 0 46 6 61 64 147 71 107 108 178 161 304 46 111 44 119 -5 29
-88 -160 -227 -328 -326 -394 -38 -24 -91 -58 -118 -73 l-50 -29 73 89 c243
300 364 586 378 888 l6 128 42 47 c78 88 181 234 240 337 l29 50 -44 -50 c-65
-75 -251 -256 -285 -277 -52 -31 -50 -20 6 40 177 187 273 435 282 734 l4 116
43 74 c182 309 478 708 736 993 149 164 59 89 -156 -132 -188 -192 -360 -389
-505 -578 -85 -110 -229 -307 -237 -325 -4 -8 -168 -69 -168 -63 0 2 14 21 30
42 17 20 32 48 35 60 2 12 15 31 28 41 48 38 123 214 155 360 11 53 16 132 16
272 l1 197 90 112 c263 330 664 729 1020 1016 45 37 45 43 0 11z m-1255 -1532
c-6 -44 -21 -107 -31 -140 -31 -95 -37 -123 -28 -137 4 -7 11 -10 16 -6 4 5 1
13 -7 18 -13 9 -13 10 0 6 9 -2 14 -14 13 -26 -2 -13 1 -20 7 -16 14 8 13 -56
-1 -75 -8 -11 -9 -6 -5 23 2 20 1 37 -5 37 -5 0 -9 -21 -9 -47 0 -25 -2 -44
-4 -42 -8 9 -13 98 -5 93 15 -9 10 13 -5 25 -12 10 -19 5 -40 -26 -14 -21 -26
-41 -26 -46 0 -12 -141 -186 -180 -222 -29 -26 -27 -23 12 31 24 34 64 99 88
145 l43 84 -72 -68 c-127 -120 -266 -206 -405 -252 -58 -19 -62 -16 -72 64
-21 170 51 419 170 586 44 61 153 175 168 175 4 0 -13 -33 -38 -72 -45 -73
-89 -192 -100 -271 l-6 -42 34 65 c95 183 251 324 425 385 l68 24 3 -97 c2
-53 -2 -133 -8 -176z m-997 -333 c114 -295 132 -521 56 -700 -10 -24 -16 -43
-13 -43 14 0 88 134 106 194 19 63 22 67 30 45 15 -39 3 -84 -56 -203 -52
-104 -98 -240 -112 -328 -4 -21 -10 -38 -14 -38 -4 0 -31 21 -59 46 -58 52
-96 111 -117 182 -15 48 -20 174 -10 228 4 18 -5 6 -25 -33 -22 -45 -34 -88
-43 -160 l-12 -98 -24 85 c-75 274 -19 567 156 806 44 60 88 114 94 114 3 0
22 -44 43 -97z m914 -28 c-8 -16 -17 -23 -27 -19 -12 4 -13 3 -2 -7 6 -7 12
-18 12 -23 0 -6 -5 -4 -10 4 -6 10 -10 11 -10 3 0 -7 -8 -13 -17 -13 -15 0
-14 2 3 15 10 8 15 15 11 15 -4 0 -3 9 3 20 6 11 15 18 20 15 5 -3 11 -1 15 5
12 19 13 10 2 -15z m56 -60 c-3 -8 -11 -15 -19 -15 -8 0 -14 -5 -14 -12 0 -6
-3 -8 -7 -5 -3 4 -14 0 -23 -8 -15 -14 -19 -14 -40 3 -16 13 -20 21 -12 26 7
4 12 1 12 -8 0 -22 33 -20 50 3 7 11 17 18 22 15 4 -3 11 2 14 10 3 9 10 14
15 11 4 -3 6 -12 2 -20z m-73 -15 c0 -5 -4 -10 -10 -10 -5 0 -10 5 -10 10 0 6
5 10 10 10 6 0 10 -4 10 -10z m120 -331 c0 -6 -9 -57 -20 -112 -39 -190 -154
-379 -321 -527 -66 -58 -70 -60 -36 -20 43 51 149 188 161 208 4 7 -27 -15
-71 -50 -155 -125 -319 -218 -502 -282 l-74 -27 7 58 c9 78 56 214 110 320
l46 88 -7 -92 c-3 -51 -3 -93 0 -93 3 0 12 33 21 74 25 109 83 223 142 275 80
72 222 129 420 171 106 22 124 24 124 9z m-1424 -770 c82 -124 146 -246 175
-334 19 -55 23 -92 24 -177 0 -59 4 -100 8 -92 20 35 39 182 33 252 -3 39 -4
72 -2 72 2 0 22 -27 46 -61 l43 -61 -37 -90 c-44 -108 -90 -280 -106 -405 -7
-51 -16 -93 -19 -93 -3 0 -36 23 -73 50 -108 82 -199 189 -259 309 -18 35 -29
48 -29 35 0 -32 36 -167 64 -236 33 -82 5 -48 -41 51 -54 114 -84 245 -90 395
-9 201 14 339 89 544 l20 53 45 -58 c25 -32 74 -101 109 -154z m1142 -251
c-35 -235 -207 -554 -422 -783 l-47 -50 31 55 c48 86 162 312 158 315 -2 2
-37 -37 -78 -87 -117 -141 -285 -296 -374 -347 -63 -36 -79 -42 -87 -30 -14
22 -10 228 6 320 16 94 57 243 83 302 l17 39 -2 -123 -2 -124 19 90 c29 145
55 202 121 268 79 79 167 118 381 172 95 24 180 43 189 44 14 1 15 -7 7 -61z
m-1419 -905 c159 -94 280 -264 345 -485 l25 -83 0 80 c0 44 -5 108 -13 143 -7
34 -11 62 -10 62 7 0 42 -77 48 -105 3 -16 11 -111 16 -210 6 -99 16 -209 24
-245 8 -36 12 -67 10 -69 -2 -2 -36 16 -76 39 -94 56 -197 155 -259 250 -27
41 -49 70 -49 66 0 -5 10 -41 21 -80 26 -85 85 -206 131 -267 19 -24 38 -50
42 -57 16 -26 -36 9 -92 62 -142 133 -232 342 -262 606 -12 96 -8 278 7 315 8
22 22 19 92 -22z m1253 -255 c-7 -7 -12 -8 -12 -2 0 14 12 26 19 19 2 -3 -1
-11 -7 -17z m29 -874 c27 -203 -6 -444 -96 -711 -43 -128 -121 -300 -131 -291
-2 3 3 27 11 54 37 122 81 505 56 490 -6 -4 -11 -14 -11 -23 0 -8 -15 -62 -34
-118 -39 -115 -123 -288 -192 -397 -54 -83 -55 -83 -98 31 -56 147 -86 315
-86 481 0 139 6 179 31 211 l20 24 -8 -30 c-11 -42 -8 -225 4 -254 8 -20 11
-8 16 65 13 213 129 381 375 545 l107 71 12 -29 c6 -17 17 -70 24 -119z
m-1275 -40 c246 -166 370 -288 453 -450 34 -65 38 -62 17 9 -8 26 -11 47 -8
47 4 0 27 -35 50 -78 38 -67 46 -90 58 -182 7 -58 22 -135 33 -172 22 -80 21
-81 -74 -48 -104 36 -186 89 -278 181 -91 90 -97 88 -44 -16 38 -77 80 -138
137 -199 44 -48 44 -49 12 -30 -228 131 -413 451 -461 798 -13 93 -14 206 -2
206 4 0 53 -30 107 -66z m1464 -921 c41 -238 33 -598 -19 -813 l-8 -35 -6 45
c-4 25 -12 96 -18 157 -6 62 -15 110 -20 107 -5 -3 -9 -16 -9 -29 0 -40 -48
-256 -74 -331 -31 -93 -64 -156 -79 -151 -23 7 -113 152 -151 242 -21 50 -49
131 -62 180 -28 101 -42 239 -27 248 6 4 12 -26 16 -81 5 -82 29 -176 47 -187
5 -3 4 12 -2 32 -15 56 -4 198 22 265 22 59 66 129 129 207 34 41 229 211 242
211 4 0 12 -30 19 -67z m-1217 -274 c149 -50 315 -152 444 -273 l75 -70 -33
54 c-39 66 -69 108 -124 175 -43 52 -41 52 46 -6 73 -49 105 -88 147 -179 64
-140 150 -315 177 -357 25 -41 25 -43 6 -43 -73 0 -242 55 -374 121 l-62 32
55 -59 c58 -63 146 -144 195 -182 l30 -22 -30 6 c-108 23 -279 140 -376 256
-128 153 -228 357 -264 536 -8 39 1 40 88 11z m1387 -416 c0 -8 5 -11 10 -8 6
3 10 2 10 -3 0 -17 -29 -22 -44 -7 -17 17 -36 20 -36 4 0 -5 -4 -7 -10 -4 -5
3 -11 -2 -11 -12 -1 -17 -2 -17 -6 0 -2 9 -9 17 -14 17 -13 0 9 22 35 37 24
13 66 -3 66 -24z m-80 -133 c0 -5 -8 -10 -17 -10 -15 0 -16 2 -3 10 19 12 20
12 20 0z m20 -30 c0 -5 -4 -10 -10 -10 -5 0 -10 5 -10 10 0 6 5 10 10 10 6 0
10 -4 10 -10z"/>
<path d="M1960 5683 c0 -5 14 -8 31 -9 20 -1 26 2 17 7 -16 11 -48 12 -48 2z"/>
<path d="M3520 11274 c-307 -81 -656 -436 -709 -721 -16 -84 -8 -98 66 -122
163 -54 397 -166 493 -237 99 -73 152 -90 199 -64 16 8 35 -8 122 -98 102
-105 602 -627 1009 -1052 112 -118 256 -267 317 -331 62 -64 113 -121 113
-126 0 -28 -163 -161 -335 -275 -214 -141 -250 -175 -261 -243 -16 -109 24
-214 115 -305 62 -63 105 -78 117 -42 42 123 122 225 213 269 50 25 66 28 163
28 l106 0 6 37 c3 20 10 39 15 42 8 5 551 -556 551 -570 0 -4 -44 -53 -98
-108 -169 -175 -1206 -1260 -1472 -1540 -140 -147 -268 -289 -286 -314 -107
-161 -251 -502 -315 -751 -31 -118 -43 -261 -25 -290 13 -21 161 -8 268 23
240 71 612 245 759 355 59 45 378 375 1338 1381 407 427 469 495 451 502 -11
4 -20 10 -20 13 0 4 5 3 10 0 6 -3 10 -4 10 -1 0 9 -71 39 -77 32 -3 -3 1 -6
10 -6 10 0 14 -5 11 -15 -4 -8 -10 -15 -16 -15 -5 0 -7 4 -3 9 3 5 1 12 -4 15
-5 3 -11 -1 -15 -9 -10 -26 -31 -16 -48 22 -12 24 -14 42 -8 53 5 10 8 19 5
21 -2 3 5 15 16 29 17 21 19 22 10 3 -17 -34 -13 -41 8 -14 10 14 17 30 14 37
-2 7 9 20 26 30 19 11 31 26 31 39 0 12 4 25 10 31 13 13 2 51 -18 59 -8 3
-19 1 -22 -6 -6 -8 -9 -8 -14 0 -4 6 -4 12 1 12 46 8 55 5 69 -23 8 -16 12
-33 9 -38 -3 -6 -1 -10 4 -10 15 0 14 33 -1 48 -8 8 -8 12 -1 12 15 0 26 -29
24 -62 -1 -14 2 -29 8 -33 7 -4 11 -48 11 -111 0 -99 1 -104 19 -95 10 6 20 9
22 6 2 -2 3 68 1 156 l-3 160 33 -3 c30 -2 33 -5 34 -35 0 -18 -4 -33 -8 -33
-5 0 -7 9 -3 19 3 11 2 22 -2 24 -4 3 -9 -42 -10 -101 -1 -73 -6 -108 -15
-113 -10 -7 -10 -9 0 -9 6 0 11 -10 11 -22 -1 -17 -2 -19 -6 -5 -2 9 -9 17
-14 17 -14 0 0 -43 17 -53 19 -11 18 -27 -2 -27 -9 0 -12 5 -8 12 4 7 3 8 -4
4 -8 -5 -9 -13 -3 -24 10 -17 152 -168 531 -563 118 -123 304 -318 415 -434
303 -318 733 -763 795 -824 107 -104 327 -226 615 -341 175 -69 289 -100 257
-68 -30 30 8 69 52 52 17 -6 23 -54 7 -54 -5 0 -7 9 -4 20 4 16 0 20 -20 20
-33 0 -39 -11 -19 -30 14 -13 15 -12 9 3 -4 11 -2 17 7 17 9 0 12 -9 8 -26 -3
-18 -1 -25 6 -20 6 3 12 1 14 -6 7 -19 155 -8 169 13 52 82 -134 666 -306 958
-63 108 -152 202 -1573 1683 -293 306 -322 339 -310 356 33 46 532 561 540
556 4 -3 11 -22 14 -42 l6 -37 106 0 c97 0 112 -3 164 -28 76 -37 146 -115
189 -211 19 -42 40 -76 47 -76 47 0 140 92 180 178 33 73 41 166 18 226 -18
48 -52 74 -311 246 -123 81 -275 210 -275 233 0 4 53 63 118 130 65 67 275
286 467 487 191 201 396 415 454 475 59 61 196 203 305 317 169 177 201 206
216 198 49 -26 101 -9 202 66 89 65 383 203 531 248 34 11 41 49 24 123 -59
241 -297 517 -562 650 -77 39 -187 73 -236 73 -41 0 -79 -27 -79 -55 0 -15
-52 -167 -90 -264 -32 -83 -113 -240 -152 -298 -43 -63 -55 -113 -35 -153 l15
-29 -770 -806 c-424 -443 -774 -805 -779 -805 -15 0 -127 105 -166 155 -21 28
-74 100 -118 160 -116 162 -173 228 -208 244 -107 45 -293 -24 -377 -141 -42
-58 -38 -87 16 -103 67 -20 162 -76 200 -118 62 -68 88 -138 92 -249 l4 -98
27 0 c63 -1 60 -15 -29 -107 -47 -48 -165 -171 -262 -272 l-177 -184 -173 179
c-95 98 -215 222 -266 275 -86 89 -91 97 -70 103 13 3 34 6 48 6 25 0 25 0 25
98 1 83 4 105 27 154 15 31 47 78 72 103 46 45 172 115 209 115 22 0 31 22 23
56 -11 43 -108 131 -181 166 -106 49 -222 41 -273 -20 -12 -15 -87 -115 -166
-222 -90 -122 -169 -216 -209 -252 l-64 -57 -79 82 c-43 45 -126 132 -184 192
-58 61 -205 214 -325 340 -367 384 -403 421 -646 674 -329 343 -313 323 -299
366 16 47 6 82 -41 155 -80 124 -168 322 -225 505 -15 50 -32 93 -38 97 -17
12 -86 8 -146 -8z m134 -204 c68 -197 121 -316 171 -382 25 -33 48 -71 51 -84
8 -32 -21 -77 -102 -154 l-67 -65 -184 190 c-101 105 -223 232 -271 284 l-87
94 45 40 c103 92 332 212 388 204 7 -1 32 -58 56 -127z m5858 95 c116 -47 325
-190 316 -215 -5 -14 -158 -176 -422 -447 l-109 -113 -50 42 c-60 50 -127 133
-127 156 0 18 16 44 74 124 33 45 128 274 176 421 22 68 22 68 54 61 17 -3 57
-17 88 -29z m-6476 -397 c-23 -40 -57 -108 -76 -150 -18 -43 -35 -76 -37 -74
-6 6 46 138 74 186 27 46 73 110 79 110 2 0 -16 -33 -40 -72z m6974 -49 c32
-61 73 -169 66 -176 -2 -3 -7 6 -11 19 -13 39 -57 129 -102 208 -36 63 -39 70
-14 41 16 -18 44 -60 61 -92z m-5674 -726 c235 -247 476 -497 534 -558 59 -60
214 -222 345 -360 131 -137 248 -255 259 -262 75 -44 147 15 321 267 163 235
216 281 303 265 43 -8 132 -44 132 -54 -1 -3 -24 -17 -53 -30 -97 -46 -184
-154 -228 -283 -27 -82 -23 -83 16 -2 36 74 103 157 158 196 18 13 4 -5 -31
-39 -79 -78 -112 -148 -120 -256 -4 -60 -9 -80 -21 -84 -43 -14 -120 -55 -151
-81 l-35 -30 230 -236 c127 -130 266 -275 309 -322 l79 -85 -54 -55 c-29 -30
-56 -54 -60 -54 -4 0 -134 133 -289 295 l-283 294 -59 -45 c-32 -25 -58 -50
-56 -54 3 -7 216 -232 489 -515 l87 -90 -51 -58 -52 -58 -184 193 c-384 402
-392 410 -416 404 -36 -9 -139 -91 -210 -168 -36 -39 -65 -66 -65 -61 0 16 86
159 135 224 60 78 285 304 380 381 39 31 97 73 130 93 46 28 53 35 30 30 -49
-11 -190 -80 -307 -151 l-109 -67 -31 31 -31 30 36 51 c39 54 43 70 27 102
-11 19 -45 25 -66 11 -6 -4 -41 -53 -78 -109 -36 -57 -68 -103 -70 -103 -3 0
-11 -3 -20 -6 -28 -11 -18 25 24 92 22 35 40 66 40 69 0 4 -7 13 -15 22 -14
13 -12 20 20 63 50 69 47 120 -9 120 -28 -1 -38 -10 -96 -92 -72 -101 -95
-128 -110 -128 -22 0 -8 46 31 102 l41 60 -26 27 -25 27 38 58 c35 52 38 62
29 88 -9 25 -15 29 -42 26 -27 -3 -39 -16 -104 -113 -70 -105 -102 -137 -102
-99 0 9 18 46 41 81 37 60 39 66 25 82 -22 24 -21 26 20 82 30 42 34 53 27 76
-8 22 -16 29 -44 31 -33 2 -36 -1 -107 -108 -69 -105 -102 -134 -102 -89 0 11
17 46 39 77 l38 57 -19 26 -20 26 37 55 c28 43 35 61 29 82 -8 33 -18 39 -52
31 -21 -4 -41 -28 -89 -103 -75 -116 -80 -122 -98 -122 -24 0 -17 23 25 89 22
34 40 65 40 68 0 4 -7 14 -16 24 -14 16 -12 22 21 72 30 46 36 61 30 86 -6 27
-11 31 -39 31 -31 0 -38 -7 -102 -104 -71 -107 -114 -147 -114 -104 0 12 19
50 41 85 l42 64 -21 22 -20 22 34 50 c24 35 33 59 32 80 -3 27 -7 30 -40 33
-36 3 -37 3 -108 -107 -39 -60 -78 -112 -86 -115 -27 -10 -15 40 25 102 34 51
37 62 25 73 -21 17 -18 29 20 85 29 42 34 57 27 80 -6 23 -14 30 -38 32 -29 3
-36 -3 -107 -106 -76 -111 -102 -135 -113 -106 -5 13 6 34 67 131 13 20 12 25
-8 46 -12 13 -22 27 -22 32 0 5 16 32 35 60 32 45 34 54 25 81 -9 26 -14 29
-43 26 -30 -3 -41 -16 -106 -112 -40 -60 -79 -111 -87 -114 -27 -10 -15 37 27
101 40 60 41 64 25 82 -17 18 -16 22 19 74 32 48 36 60 28 84 -7 21 -17 29
-40 31 -31 3 -32 3 -140 -159 -18 -26 -41 -53 -53 -59 -35 -19 -25 34 19 99
l40 58 -21 22 -20 22 36 54 c20 30 36 61 36 69 0 33 -13 46 -46 46 -33 0 -38
-5 -102 -104 -60 -94 -93 -128 -109 -113 -9 9 7 45 43 96 19 28 34 54 34 58 0
4 -10 17 -22 30 l-22 23 64 65 c36 36 65 65 66 65 1 0 195 -201 430 -447z
m4864 292 c-20 -21 -22 -29 -12 -43 29 -41 72 -118 72 -129 0 -14 -19 -17 -35
-5 -5 4 -40 53 -78 110 -63 96 -69 102 -101 102 -30 0 -35 -4 -41 -29 -5 -24
1 -41 31 -86 l37 -56 -20 -21 -21 -21 39 -56 c40 -57 51 -101 25 -101 -8 0
-49 50 -92 111 -72 102 -80 110 -107 107 -23 -2 -33 -10 -40 -31 -8 -24 -4
-36 28 -82 35 -50 36 -55 22 -75 -14 -21 -13 -26 24 -83 40 -61 52 -111 25
-101 -8 3 -48 55 -88 115 -68 102 -75 109 -106 109 -26 0 -35 -5 -42 -26 -9
-21 -4 -34 29 -83 l40 -58 -27 -27 c-24 -24 -25 -28 -13 -49 62 -98 73 -118
68 -131 -11 -29 -36 -5 -112 105 -67 96 -79 109 -104 109 -24 0 -31 -6 -40
-31 -10 -29 -8 -36 24 -79 38 -52 43 -71 20 -90 -12 -10 -9 -20 25 -70 40 -60
55 -119 25 -103 -8 5 -46 57 -85 116 -66 102 -71 107 -104 107 -58 0 -62 -43
-11 -114 l35 -50 -21 -22 -21 -23 41 -63 c45 -69 56 -117 21 -98 -10 6 -52 57
-92 115 -66 97 -74 105 -104 105 -28 0 -33 -4 -39 -31 -6 -26 -1 -40 30 -85
36 -52 37 -55 20 -73 -16 -19 -15 -23 24 -88 44 -74 49 -93 26 -93 -18 0 -26
9 -83 100 -73 116 -75 119 -112 122 -29 3 -34 -1 -41 -26 -7 -24 -2 -38 27
-83 35 -52 36 -61 13 -94 -10 -13 -5 -26 25 -70 20 -30 36 -66 36 -81 0 -26
-2 -27 -20 -16 -11 7 -51 59 -88 115 -62 95 -69 103 -100 103 -26 0 -34 -5
-43 -27 -8 -22 -5 -34 26 -79 40 -62 40 -62 19 -85 -14 -15 -12 -22 25 -79 42
-65 53 -104 27 -98 -8 2 -48 53 -88 113 -62 93 -77 111 -102 113 -57 7 -62
-49 -10 -120 l36 -50 -27 -28 -26 -27 40 -58 c49 -70 56 -124 13 -96 -12 7
-36 39 -119 159 -31 45 -40 52 -68 52 -57 0 -60 -43 -9 -118 33 -50 35 -55 19
-72 -15 -17 -13 -22 24 -80 35 -54 52 -100 37 -100 -22 0 -46 28 -108 122 -67
103 -73 109 -102 106 -23 -2 -33 -10 -40 -30 -8 -23 -4 -35 28 -84 l38 -57
-30 -30 -30 -30 -111 67 c-119 72 -257 140 -306 151 -23 6 -16 -2 29 -29 33
-20 92 -62 130 -94 101 -81 333 -314 394 -397 45 -61 122 -192 122 -208 0 -3
-42 36 -92 87 -93 93 -177 153 -202 143 -11 -5 -218 -218 -1000 -1037 -180
-189 -196 -208 -176 -220 7 -4 20 -6 28 -3 13 5 31 -12 32 -29 0 -12 -38 -10
-45 2 -3 5 -16 15 -28 21 l-22 10 23 -20 c24 -21 29 -46 11 -57 -11 -7 -29 12
-29 31 0 6 4 3 10 -5 5 -8 12 -12 15 -9 3 4 -1 12 -10 19 -12 10 -16 8 -26
-14 -7 -14 -16 -26 -20 -26 -10 0 -1 29 15 49 9 12 8 12 -11 0 -13 -8 -24 -21
-25 -29 -3 -31 -4 -35 -11 -47 -5 -7 -4 -13 0 -13 5 0 10 -41 11 -92 1 -50 -1
-88 -5 -84 -5 4 -8 42 -8 84 0 56 -3 76 -12 75 -7 -2 -13 3 -13 10 0 7 6 19
13 27 15 18 -52 -38 -74 -61 -11 -12 -15 -34 -13 -79 1 -60 1 -61 -22 -56 -19
5 -22 3 -17 -11 4 -11 3 -14 -5 -9 -7 4 -12 13 -12 20 0 8 -11 14 -24 14 -18
0 -23 -5 -19 -16 4 -10 2 -13 -6 -8 -14 9 -122 -98 -571 -569 -183 -192 -360
-378 -393 -412 -49 -50 -58 -65 -48 -76 7 -9 11 -50 10 -113 -1 -70 -4 -92
-10 -76 -5 13 -7 28 -3 33 3 5 1 9 -5 9 -17 0 -23 -20 -11 -35 16 -19 3 -19
-16 -1 -9 10 -10 17 -4 21 6 4 8 11 5 16 -4 5 2 9 12 9 13 0 18 8 19 33 1 29
0 30 -9 10 -5 -13 -14 -23 -19 -23 -12 0 -10 10 8 27 8 9 13 22 10 30 -3 8 -2
11 4 8 5 -3 8 4 7 15 -1 10 -7 22 -14 24 -7 3 -10 -1 -7 -8 3 -8 1 -17 -5 -21
-6 -3 -11 1 -11 10 0 8 -82 -67 -182 -168 -148 -148 -198 -192 -263 -229 -106
-61 -304 -162 -309 -157 -4 4 357 383 1259 1324 495 517 525 550 524 573 0 13
-2 12 -9 -5 -7 -16 -18 -23 -37 -23 -22 0 -25 2 -13 10 8 5 11 10 6 10 -5 0
-3 7 4 15 6 8 9 19 6 24 -4 5 4 19 16 30 25 24 47 28 28 6 -10 -13 -9 -15 9
-15 23 0 28 -19 9 -38 -6 -6 -9 -15 -5 -18 3 -4 12 6 19 22 7 16 20 35 28 42
13 11 12 12 -6 3 -12 -6 -24 -7 -28 -4 -14 14 -4 21 32 19 36 -1 44 6 277 249
680 709 1050 1098 1053 1105 2 4 -24 29 -56 54 l-59 45 -169 -177 c-93 -97
-232 -242 -309 -322 -153 -158 -1135 -1184 -1489 -1555 -121 -126 -270 -282
-331 -345 -242 -251 -494 -517 -533 -562 -49 -57 -133 -211 -198 -363 l-47
-110 -166 -172 c-90 -95 -166 -171 -168 -169 -6 6 67 275 103 378 44 127 110
259 162 324 66 83 355 396 852 919 458 484 1750 1829 2113 2202 68 69 106 116
102 123 -12 20 -124 88 -155 95 -25 6 -30 12 -34 48 -3 23 -8 62 -11 87 -8 65
-44 137 -105 205 -50 57 -49 56 15 -9 47 -48 78 -91 101 -140 39 -84 44 -74 9
19 -46 123 -128 221 -222 268 -24 12 -43 25 -43 30 0 11 76 44 122 52 83 16
152 -41 283 -235 168 -246 230 -310 301 -310 39 0 48 8 325 300 122 129 275
289 339 355 110 115 311 325 745 778 l199 208 65 -65 65 -65 -24 -26z m-5893
80 c38 -14 107 -48 154 -75 86 -50 134 -61 157 -38 6 6 15 9 18 5 4 -4 -10
-14 -31 -23 l-38 -15 -151 74 c-83 42 -162 80 -176 85 -53 22 3 11 67 -13z
m6453 13 c-14 -6 -93 -44 -176 -85 l-152 -75 -36 17 c-20 10 -34 20 -31 23 3
3 11 0 17 -6 24 -24 72 -12 161 39 49 29 119 62 156 75 66 24 108 32 61 12z
m-4742 -2086 c19 -3 14 -20 -8 -27 -12 -4 -26 0 -36 10 -14 13 -19 14 -25 3
-5 -7 -9 -21 -9 -31 0 -10 -4 -16 -9 -13 -10 7 -2 48 10 56 7 5 43 6 77 2z
m3004 -98 c-2 -84 0 -101 15 -111 16 -12 16 -13 0 -13 -20 0 -37 37 -37 80 0
16 -6 30 -12 33 -10 3 -10 9 -1 28 6 13 14 31 16 39 3 8 6 3 6 -12 1 -16 -4
-28 -10 -28 -5 0 -7 -5 -3 -11 9 -16 24 9 24 42 0 37 -23 42 -55 13 -32 -30
-55 -19 -33 15 15 25 30 28 21 4 -6 -14 -1 -13 22 5 16 12 33 21 39 19 7 -3
10 -39 8 -103z m-3055 51 c0 -8 -4 -15 -9 -15 -4 0 -8 7 -8 15 0 8 4 15 8 15
5 0 9 -7 9 -15z m81 -63 c3 -67 1 -73 -20 -82 l-23 -9 25 -1 c19 0 22 -2 10
-10 -23 -14 -39 7 -37 51 1 21 2 39 4 39 1 0 7 -10 14 -21 9 -17 8 -24 -2 -31
-11 -8 -11 -9 1 -5 8 2 15 15 15 30 1 14 -2 24 -6 21 -11 -7 -22 38 -11 45 5
3 6 15 1 26 -7 19 -8 19 -8 -1 -1 -30 -41 -79 -52 -63 -5 8 -10 0 -14 -24 -7
-38 0 -61 16 -51 6 4 6 11 -1 20 -7 7 -10 19 -7 26 4 8 8 5 12 -9 4 -13 11
-23 16 -23 5 0 6 -7 2 -16 -10 -27 -47 -13 -54 21 -8 43 9 77 34 69 13 -4 17
-2 13 5 -4 6 -3 11 2 11 6 0 15 14 21 31 7 21 16 30 28 27 15 -3 19 -16 21
-76z m2999 -11 c-1 -43 -5 -77 -9 -74 -5 2 -8 17 -8 32 0 32 11 121 15 121 2
0 3 -36 2 -79z m-73 14 c3 -8 -2 -22 -11 -31 -16 -15 -16 -18 4 -34 21 -17 21
-17 -8 -17 -15 0 -30 6 -33 14 -3 7 0 13 7 13 9 0 9 2 -1 8 -14 9 -6 42 10 42
6 0 4 -7 -3 -17 -12 -14 -12 -16 1 -11 8 2 16 14 18 26 4 26 8 27 16 7z m6
-105 c0 -5 -2 -10 -4 -10 -3 0 -8 5 -11 10 -3 6 -1 10 4 10 6 0 11 -4 11 -10z
m-908 -750 c2 -5 52 -60 113 -122 60 -62 159 -165 220 -228 60 -63 162 -169
225 -235 201 -209 629 -662 856 -905 378 -406 407 -442 476 -607 54 -130 157
-477 145 -489 -2 -2 -34 29 -72 69 -38 39 -112 117 -164 173 -93 97 -98 105
-164 250 -98 217 -141 286 -259 410 -57 60 -405 424 -773 809 -367 385 -682
714 -698 732 l-29 32 53 60 c54 61 65 69 71 51z m-222 -238 c0 -5 15 -19 33
-32 17 -13 26 -17 20 -9 -10 13 -10 16 2 16 9 0 15 -10 15 -25 0 -17 20 -44
63 -87 34 -34 79 -82 100 -106 21 -24 77 -84 125 -134 48 -49 188 -196 312
-325 124 -129 279 -291 345 -360 184 -191 732 -765 818 -855 41 -44 74 -82 72
-83 -5 -5 -212 100 -310 156 -62 36 -116 82 -239 204 -87 87 -160 158 -162
158 -1 0 0 -16 3 -35 3 -22 2 -35 -5 -35 -6 0 -9 10 -7 22 3 12 0 27 -6 34 -6
7 -8 17 -5 23 9 13 -54 60 -72 53 -13 -4 -12 -7 2 -17 20 -15 20 -22 1 -22 -8
0 -15 7 -16 16 0 12 -3 11 -9 -4 -7 -16 -9 -17 -9 -3 -1 9 4 20 9 23 6 4 8 11
5 16 -4 5 1 9 9 9 9 0 16 3 16 6 0 9 -64 79 -200 219 -58 61 -245 255 -415
433 -292 306 -310 322 -324 305 -14 -17 -25 -18 -91 -13 -61 5 -70 7 -47 14
15 5 44 6 62 3 20 -3 37 -1 41 5 5 8 1 9 -10 5 -11 -5 -15 -3 -10 5 5 8 1 9
-12 4 -10 -4 -15 -3 -10 1 4 4 18 8 31 8 18 1 22 -4 20 -22 -3 -28 11 -31 18
-4 2 11 -4 29 -17 43 -11 13 -18 19 -13 14 13 -18 7 -29 -8 -16 -8 7 -15 20
-15 30 0 23 -28 34 -47 19 -7 -7 -17 -9 -20 -5 -4 4 -1 11 6 15 9 6 10 11 2
15 -6 4 -11 2 -11 -5 0 -7 -2 -10 -5 -7 -3 3 -3 13 1 22 6 16 8 16 28 -1 21
-18 21 -18 3 4 -25 29 -50 19 -45 -18 6 -37 -8 -38 -15 -1 -3 15 -9 36 -13 46
-5 13 -4 17 4 12 8 -5 10 -1 5 10 -5 13 -3 15 7 9 9 -5 11 -4 6 4 -4 6 -12 9
-17 6 -5 -4 -9 0 -9 8 0 7 -12 24 -27 38 -15 13 -22 17 -15 8 6 -9 8 -20 4
-24 -4 -5 -1 -5 7 0 11 7 13 2 8 -25 -4 -18 -7 -42 -8 -54 -1 -19 -2 -19 -10
4 -6 20 -8 15 -6 -22 1 -27 -1 -48 -5 -48 -7 0 -14 158 -8 185 1 6 -2 7 -6 3
-9 -9 -34 10 -34 26 0 6 5 4 10 -4 5 -8 10 -11 10 -7 0 4 -6 18 -14 30 -8 12
-12 33 -11 47 2 14 4 30 4 37 1 7 11 10 25 7 14 -2 30 3 41 16 18 20 45 27 45
12z m-169 -50 c16 -20 46 -32 35 -14 -2 4 -1 14 3 21 6 9 9 4 9 -13 0 -15 -6
-26 -14 -26 -11 0 -14 -29 -16 -137 l-2 -138 -6 140 c-7 172 -11 165 -10 -17
l1 -138 -26 0 c-14 0 -25 4 -25 9 0 5 9 7 20 4 20 -5 21 -2 18 128 -3 118 -5
134 -20 137 -14 3 -18 -3 -17 -25 0 -15 3 -22 6 -15 15 37 23 -1 23 -104 0
-88 -3 -115 -12 -111 -9 3 -13 31 -13 94 0 50 -3 86 -7 80 -4 -7 -8 11 -8 40
0 28 -3 53 -7 56 -5 2 -2 2 5 0 7 -1 10 1 7 7 -3 5 4 8 15 7 11 -1 20 -8 21
-17 0 -10 3 -9 8 5 5 11 3 24 -3 31 -8 9 -12 8 -17 -4 -5 -14 -7 -14 -17 4 -9
18 -8 20 10 19 12 -1 29 -11 39 -23z m359 -18 c0 -32 -3 -43 -12 -38 -8 5 -8
3 -2 -7 5 -8 9 -24 9 -37 1 -20 -2 -19 -37 15 -31 30 -38 44 -38 75 0 38 0 38
40 38 l40 0 0 -46z m-420 16 c0 -5 -5 -10 -11 -10 -5 0 -7 5 -4 10 3 6 8 10
11 10 2 0 4 -4 4 -10z m-30 -60 c0 -5 -2 -10 -4 -10 -3 0 -8 5 -11 10 -3 6 -1
10 4 10 6 0 11 -4 11 -10z m-5 -150 c0 -60 -3 -102 -7 -92 -12 31 -7 202 6
202 0 0 1 -49 1 -110z m162 23 c-2 -16 -4 -5 -4 22 0 28 2 40 4 28 2 -13 2
-35 0 -50z m-504 39 c2 7 4 -22 2 -65 -1 -57 2 -83 12 -93 12 -12 11 -14 -14
-13 -15 0 -22 3 -15 6 18 7 15 19 -7 19 -12 0 -17 -5 -13 -15 3 -8 1 -12 -4
-9 -12 8 -8 128 5 141 18 18 12 31 -6 16 -15 -13 -15 -12 -2 9 12 20 15 20 25
7 9 -12 13 -13 17 -3z m550 -165 c18 -4 18 -4 -5 -6 l-28 -1 2 98 2 97 3 -92
c4 -85 5 -92 26 -96z m24 21 c-3 -7 -5 -2 -5 12 0 14 2 19 5 13 2 -7 2 -19 0
-25z m109 -13 c-11 -8 -29 -15 -40 -14 -15 0 -10 4 14 13 46 18 48 18 26 1z
m-36 -59 c0 -2 -7 -7 -16 -10 -8 -3 -12 -2 -9 4 6 10 25 14 25 6z m63 -53
c-18 -2 -48 -2 -65 0 -18 2 -4 4 32 4 36 0 50 -2 33 -4z m1062 -1025 c3 -29 2
-30 -8 -11 -9 15 -15 18 -22 9 -5 -6 -10 -17 -11 -23 -4 -48 -4 -48 -14 -33
-5 9 -5 19 2 27 7 9 7 13 0 13 -5 0 -12 -7 -16 -15 -3 -8 -10 -15 -16 -15 -17
0 -2 19 41 49 21 16 36 31 34 35 -3 3 -2 4 1 1 4 -2 8 -19 9 -37z m-3040 -34
c-8 -16 -15 -26 -16 -21 -1 4 -2 11 -3 16 -3 20 -16 23 -16 3 0 -12 10 -30 21
-41 13 -12 19 -26 16 -35 -8 -20 -21 -20 -37 -1 -9 10 -9 15 -1 15 6 0 11 5
11 10 0 6 -7 10 -15 10 -12 0 -14 7 -9 28 8 35 34 58 46 39 5 -8 8 -6 9 8 0
11 3 15 5 9 3 -6 -2 -24 -11 -40z m3045 -39 c0 -22 6 -38 18 -44 11 -7 12 -11
4 -11 -7 0 -20 7 -29 15 -14 14 -17 14 -33 0 -16 -14 -19 -14 -40 3 -16 13
-20 21 -12 26 7 4 12 1 12 -8 0 -9 9 -16 20 -16 11 0 20 5 20 10 0 6 7 10 16
10 12 0 15 7 12 25 -3 14 -1 25 3 25 5 0 9 -16 9 -35z m-70 15 c0 -5 -8 -10
-17 -10 -15 0 -16 2 -3 10 19 12 20 12 20 0z m100 -31 c0 -5 -4 -9 -10 -9 -5
0 -10 7 -10 16 0 8 5 12 10 9 6 -3 10 -10 10 -16z m-80 1 c0 -5 -4 -10 -10
-10 -5 0 -10 5 -10 10 0 6 5 10 10 10 6 0 10 -4 10 -10z"/>
<path d="M3527 11149 c-56 -13 -126 -52 -180 -99 -26 -23 -46 -44 -44 -47 3
-2 40 17 83 43 44 25 105 59 137 75 76 39 77 45 4 28z"/>
<path d="M9420 11155 c0 -3 28 -19 63 -36 34 -17 95 -52 135 -76 40 -25 75
-43 78 -41 10 11 -92 92 -149 118 -58 26 -127 45 -127 35z"/>
<path d="M5994 7028 c-4 -7 -3 -8 4 -4 17 10 15 -4 -4 -25 -10 -11 -12 -19 -5
-24 10 -6 31 32 31 56 0 13 -17 11 -26 -3z"/>
<path d="M6030 7020 c0 -5 5 -10 10 -10 6 0 10 5 10 10 0 6 -4 10 -10 10 -5 0
-10 -4 -10 -10z"/>
<path d="M6370 7026 c0 -2 7 -7 16 -10 8 -3 12 -2 9 4 -6 10 -25 14 -25 6z"/>
<path d="M6107 6809 c-21 -23 -37 -43 -34 -45 5 -5 77 67 77 78 0 12 -2 11
-43 -33z"/>
<path d="M6106 6771 c-3 -5 4 -11 16 -14 29 -8 32 -4 8 11 -10 6 -21 8 -24 3z"/>
<path d="M4985 8280 c4 -6 11 -8 16 -5 14 9 11 15 -7 15 -8 0 -12 -5 -9 -10z"/>
<path d="M7930 8249 c0 -5 5 -7 10 -4 6 3 10 8 10 11 0 2 -4 4 -10 4 -5 0 -10
-5 -10 -11z"/>
<path d="M5020 8189 c0 -5 5 -7 10 -4 6 3 10 8 10 11 0 2 -4 4 -10 4 -5 0 -10
-5 -10 -11z"/>
<path d="M6750 7039 c0 -5 5 -7 10 -4 6 3 10 8 10 11 0 2 -4 4 -10 4 -5 0 -10
-5 -10 -11z"/>
<path d="M6981 6987 c2 -1 15 -11 29 -22 l25 -20 -19 23 c-11 12 -24 22 -29
22 -6 0 -8 -1 -6 -3z"/>
<path d="M6210 6845 c-11 -13 -10 -14 4 -9 9 3 16 10 16 15 0 13 -6 11 -20 -6z"/>
<path d="M4957 5503 c-4 -3 -7 -11 -7 -17 0 -6 5 -5 12 2 6 6 9 14 7 17 -3 3
-9 2 -12 -2z"/>
<path d="M10980 10890 c0 -6 7 -10 15 -10 8 0 15 2 15 4 0 2 -7 6 -15 10 -8 3
-15 1 -15 -4z"/>
<path d="M10955 10880 c-3 -5 -1 -10 4 -10 6 0 11 5 11 10 0 6 -2 10 -4 10 -3
0 -8 -4 -11 -10z"/>
<path d="M1600 8321 c0 -5 -8 -12 -17 -14 -15 -4 -15 -5 -2 -6 9 0 22 6 29 14
9 10 9 15 1 15 -6 0 -11 -4 -11 -9z"/>
<path d="M11337 8273 c-3 -10 -2 -38 3 -63 8 -44 8 -44 7 18 -1 66 -3 72 -10
45z"/>
<path d="M11182 8235 c0 -11 6 -42 13 -70 12 -47 13 -48 13 -15 0 19 -6 51
-13 70 -8 22 -13 27 -13 15z"/>
<path d="M11441 8144 c0 -11 3 -14 6 -6 3 7 2 16 -1 19 -3 4 -6 -2 -5 -13z"/>
<path d="M11354 8087 c3 -10 6 -20 6 -23 0 -2 7 -1 15 2 8 4 15 1 15 -5 0 -6
-8 -11 -17 -12 -12 0 -13 -2 -5 -6 7 -3 19 1 27 7 11 9 15 9 15 1 0 -6 -11
-16 -24 -22 -33 -16 -24 -49 14 -49 30 0 48 28 34 51 -4 8 -3 9 4 5 7 -4 12
-16 12 -27 0 -10 5 -19 10 -19 6 0 10 -8 11 -17 0 -12 2 -14 6 -5 6 15 -27 82
-39 82 -4 0 -5 6 -3 13 4 8 -6 12 -31 13 -20 0 -40 7 -46 15 -8 11 -9 10 -4
-4z"/>
<path d="M1660 8051 c0 -6 4 -13 10 -16 6 -3 7 1 4 9 -7 18 -14 21 -14 7z"/>
<path d="M11430 7971 c0 -5 -10 -7 -22 -4 -19 4 -20 3 -8 -6 13 -10 13 -12 0
-21 -13 -8 -12 -10 3 -10 9 0 17 5 17 11 0 8 4 8 15 -1 21 -17 38 -4 25 21
-11 20 -30 26 -30 10z m20 -17 c0 -8 -5 -12 -10 -9 -6 4 -8 11 -5 16 9 14 15
11 15 -7z"/>
<path d="M6417 6933 c-13 -12 -7 -23 13 -23 11 0 20 7 20 15 0 15 -21 21 -33
8z"/>
<path d="M6382 6923 c-6 -2 -9 -10 -5 -16 4 -7 0 -8 -11 -4 -10 4 -15 3 -11
-4 4 -5 0 -21 -9 -34 -10 -16 -14 -37 -11 -62 3 -23 1 -33 -4 -25 -7 11 -10
10 -15 -3 -7 -20 0 -35 17 -34 9 0 9 2 0 6 -7 2 -13 9 -13 14 0 4 6 6 13 3 8
-3 19 2 26 10 7 8 19 12 27 9 13 -5 15 6 13 71 -2 42 -3 76 -4 75 0 0 -6 -3
-13 -6z m8 -37 c0 -2 -7 -9 -15 -16 -13 -11 -14 -10 -9 4 5 14 24 23 24 12z
m-35 -56 c3 -5 1 -10 -4 -10 -6 0 -11 5 -11 10 0 6 2 10 4 10 3 0 8 -4 11 -10z"/>
<path d="M6301 6803 c0 -25 1 -26 9 -8 12 27 12 35 0 35 -5 0 -10 -12 -9 -27z"/>
<path d="M10988 5683 c7 -3 16 -2 19 1 4 3 -2 6 -13 5 -11 0 -14 -3 -6 -6z"/>
<path d="M10940 5675 c0 -5 5 -17 10 -25 5 -8 10 -10 10 -5 0 6 -5 17 -10 25
-5 8 -10 11 -10 5z"/>
<path d="M10781 5000 c-17 -44 -38 -106 -46 -137 -18 -67 -31 -183 -21 -183 4
0 28 7 54 15 l47 16 0 184 c0 102 -1 185 -2 185 -1 0 -15 -36 -32 -80z"/>
<path d="M2290 4913 c0 -44 -3 -114 -6 -155 l-7 -75 48 -16 48 -17 -7 53 c-7
51 -63 278 -72 286 -2 2 -4 -32 -4 -76z"/>
<path d="M930 4970 c0 -5 61 -167 135 -362 74 -194 135 -357 135 -363 0 -5
-38 -35 -85 -65 -47 -30 -85 -61 -85 -67 0 -7 -5 -12 -12 -10 -7 1 -16 -16
-21 -39 -9 -38 -11 -41 -46 -42 -20 -1 -49 -4 -66 -8 -29 -6 -339 -203 -332
-210 2 -2 150 -51 328 -108 912 -293 1144 -369 1149 -373 2 -2 -11 -51 -31
-109 -30 -87 -33 -104 -19 -104 8 0 25 -6 35 -14 19 -13 20 -20 11 -106 -9
-85 -8 -94 9 -106 17 -13 17 -14 2 -14 -24 0 -40 47 -33 93 3 20 9 54 12 76 4
26 2 41 -7 46 -8 5 -10 4 -5 -4 4 -6 4 -11 -1 -10 -4 1 -19 -2 -31 -6 -18 -6
-20 -10 -10 -16 10 -7 9 -9 -3 -9 -9 0 -20 -8 -24 -17 -16 -41 -145 -426 -143
-427 4 -2 98 -33 313 -102 1071 -346 2249 -575 3395 -658 506 -38 1313 -45
1760 -16 1148 73 2077 228 3145 526 280 79 792 241 800 254 4 7 -138 430 -152
454 -4 6 -8 16 -9 22 -1 7 -19 64 -40 127 -21 64 -36 118 -34 121 3 2 111 38
240 79 632 203 1234 397 1237 401 2 2 -143 100 -321 217 -179 118 -326 218
-326 223 0 4 61 168 135 362 74 195 135 358 135 363 0 5 -66 -13 -147 -39 -82
-27 -409 -133 -728 -235 -319 -103 -719 -231 -889 -286 -285 -92 -372 -128
-347 -143 5 -4 14 2 20 11 9 16 10 16 11 2 0 -18 -26 -33 -41 -23 -5 3 -9 3
-9 0 0 -3 12 -12 27 -21 l28 -16 -30 6 c-16 4 -31 11 -33 15 -5 13 -49 -31
-56 -57 -4 -12 -2 -24 5 -29 9 -5 10 -2 6 10 -4 10 -1 19 8 22 8 4 15 12 15
19 0 8 4 16 9 19 10 7 9 -20 -1 -30 -4 -3 -4 -13 -1 -22 4 -13 3 -14 -5 -4 -7
11 -10 9 -15 -8 -5 -19 -8 -20 -29 -9 -21 11 -22 11 -9 -5 8 -9 11 -19 7 -23
-3 -3 -6 -1 -6 5 0 7 -5 12 -11 12 -5 0 -8 -4 -5 -9 3 -5 -1 -11 -9 -15 -8 -3
-15 -14 -15 -24 0 -16 7 -18 45 -17 25 2 42 -1 39 -6 -3 -5 -23 -9 -45 -9 -29
0 -39 -4 -39 -16 0 -8 -4 -13 -9 -9 -14 8 -23 -94 -13 -148 5 -26 6 -49 3 -52
-11 -6 -345 -89 -526 -130 -1564 -355 -3209 -405 -4800 -145 -363 59 -619 112
-1008 207 l-269 65 7 68 c13 130 -34 259 -128 352 l-52 51 -540 174 c-297 95
-638 205 -758 243 -119 39 -348 112 -507 164 -160 51 -290 90 -290 86z m2080
-725 c0 -23 -541 -247 -558 -231 -2 2 20 23 49 46 62 49 179 110 269 140 103
35 240 61 240 45z m7160 -26 c101 -27 285 -118 340 -169 38 -34 41 -40 20 -34
-74 19 -312 114 -425 170 l-130 64 60 -6 c33 -3 94 -14 135 -25z m-195 -9 c11
-5 15 -9 9 -9 -7 -1 -8 -18 -4 -50 4 -32 3 -49 -4 -48 -6 1 -12 -9 -13 -23 -2
-22 -2 -23 6 -5 11 23 13 10 4 -23 -4 -18 -8 -20 -14 -10 -7 10 -9 9 -9 -4 0
-10 -5 -18 -11 -18 -6 0 -8 9 -3 23 4 12 6 50 6 84 -1 36 3 65 9 69 8 4 7 9
-2 15 -18 11 0 10 26 -1z m-45 -130 c0 -17 -7 -33 -17 -39 -15 -8 -15 -11 -3
-12 8 -1 -7 -5 -35 -9 -58 -8 -58 -8 -49 14 7 17 34 22 34 6 0 -16 26 -12 42
8 9 9 15 29 13 45 -2 15 1 25 6 21 5 -3 9 -18 9 -34z m-8913 -12 c-3 -8 -6 -5
-6 6 -1 11 2 17 5 13 3 -3 4 -12 1 -19z m1529 -268 c49 -17 179 -57 289 -90
2078 -614 4262 -696 6400 -239 361 78 853 209 1178 315 76 25 141 43 144 40 3
-3 -5 -10 -18 -15 -35 -13 -482 -189 -564 -222 -38 -15 -65 -28 -59 -28 7 -1
97 17 200 39 441 95 486 103 495 89 4 -8 5 -17 1 -21 -7 -7 -292 -122 -579
-233 -40 -16 -71 -30 -69 -32 2 -2 109 18 237 46 443 94 449 95 460 84 6 -6 9
-15 6 -20 -3 -5 -154 -67 -335 -138 -182 -72 -327 -131 -323 -133 6 -2 405 80
639 132 55 13 64 12 69 -1 3 -8 2 -18 -3 -22 -8 -7 -179 -75 -542 -216 -67
-27 -121 -50 -119 -52 3 -3 607 121 689 142 19 5 27 2 32 -11 4 -9 5 -18 4
-18 -2 -1 -113 -46 -248 -99 -395 -155 -446 -176 -433 -177 6 0 65 12 130 26
119 25 313 67 496 105 54 11 101 18 104 15 14 -14 -10 -34 -64 -55 -194 -74
-622 -245 -619 -248 2 -2 162 30 357 72 194 41 359 75 367 75 7 0 12 -7 10
-16 -2 -10 -108 -57 -318 -140 -173 -68 -330 -129 -348 -135 -67 -22 -20 -20
95 5 618 132 633 135 633 117 0 -21 -634 -210 -1040 -310 -1556 -387 -3145
-504 -4755 -351 -824 79 -1634 230 -2435 454 -217 60 -617 183 -640 196 -51
29 59 13 380 -55 199 -42 364 -74 367 -72 2 3 -6 8 -19 12 -13 4 -170 66 -350
137 -218 86 -328 134 -328 144 0 8 6 14 13 14 7 0 172 -34 366 -75 195 -42
355 -74 357 -72 3 2 -148 64 -333 137 -186 73 -342 136 -348 141 -39 37 119
12 622 -100 51 -12 98 -21 105 -21 13 1 -618 255 -659 266 -25 7 -27 12 -15
31 6 10 93 -5 360 -62 194 -41 358 -75 365 -75 7 0 -112 49 -263 109 -398 157
-410 162 -410 175 0 24 11 24 118 1 334 -73 594 -126 598 -123 1 2 -144 61
-324 132 -180 71 -331 132 -336 137 -6 6 -6 13 2 21 12 12 11 13 461 -83 128
-28 235 -48 237 -46 3 2 -60 29 -138 60 -430 168 -502 197 -509 204 -5 5 -4
14 1 22 7 12 66 2 350 -58 188 -40 343 -71 345 -69 2 2 -139 59 -313 127 -174
68 -321 128 -326 133 -17 14 7 9 100 -22z m8469 -729 c-13 -13 -19 -14 -36 -2
-23 14 -35 7 -41 -24 -2 -11 -6 -15 -10 -10 -11 18 11 55 32 55 11 0 20 4 20
10 0 6 10 5 25 -2 23 -10 24 -13 10 -27z m-9009 -57 c-3 -8 -11 -14 -18 -13
-10 0 -10 2 0 6 6 2 13 17 13 31 1 18 3 21 6 9 3 -10 2 -25 -1 -33z m8958 31
c-4 -8 -8 -15 -10 -15 -2 0 -4 7 -4 15 0 8 4 15 10 15 5 0 7 -7 4 -15z m83
-42 c2 -31 -2 -55 -9 -59 -8 -5 -9 -2 -5 10 4 9 3 15 -2 12 -5 -3 -12 1 -15
10 -3 8 -2 12 3 9 5 -3 12 -1 15 4 13 21 -30 15 -48 -7 -10 -13 -21 -21 -24
-18 -7 7 -32 -13 -32 -26 0 -5 9 -6 20 -3 14 4 20 2 20 -8 0 -9 5 -17 11 -19
8 -3 5 -10 -6 -22 -16 -16 -19 -16 -33 -2 -32 31 -19 96 19 96 11 0 17 5 14
10 -3 6 -2 10 3 10 6 0 15 14 21 31 7 21 16 30 28 27 14 -2 19 -15 20 -55z
m-9000 -32 c-1 -43 -5 -77 -9 -74 -5 2 -8 17 -8 32 0 32 11 121 15 121 2 0 3
-36 2 -79z m-66 15 c5 3 9 0 9 -6 0 -7 -8 -9 -20 -5 -19 6 -25 -2 -21 -32 1
-7 -3 -13 -9 -13 -6 0 -8 -5 -4 -11 5 -8 10 -6 16 5 5 9 6 21 3 26 -3 6 -1 10
4 10 6 0 11 -11 11 -24 0 -13 6 -26 13 -29 6 -2 -1 -4 -18 -3 -30 1 -45 11
-45 32 0 18 43 69 48 56 2 -7 8 -10 13 -6z m9049 -58 c0 -4 -5 -8 -12 -8 -6 0
-8 -3 -5 -6 4 -4 13 -2 20 4 10 9 14 8 14 -3 0 -8 -10 -15 -21 -16 -18 -1 -17
-2 4 -8 20 -6 22 -8 8 -13 -24 -9 -36 11 -35 55 1 34 2 37 14 21 7 -10 13 -21
13 -26z m-9050 -48 c0 -5 -2 -10 -4 -10 -3 0 -8 5 -11 10 -3 6 -1 10 4 10 6 0
11 -4 11 -10z"/>
<path d="M9953 4150 c0 -25 2 -35 4 -22 2 12 2 32 0 45 -2 12 -4 2 -4 -23z"/>
<path d="M10980 3079 c0 -5 5 -7 10 -4 6 3 10 8 10 11 0 2 -4 4 -10 4 -5 0
-10 -5 -10 -11z"/>
<path d="M11010 3030 c0 -11 4 -20 9 -20 5 0 7 9 4 20 -3 11 -7 20 -9 20 -2 0
-4 -9 -4 -20z"/>
<path d="M10940 2913 c0 -5 4 -14 9 -21 7 -11 9 -11 14 1 3 8 3 18 0 21 -9 8
-23 7 -23 -1z"/>
<path d="M10087 4888 c-114 -157 -213 -351 -219 -429 -2 -24 -10 -49 -18 -56
-8 -6 -12 -15 -7 -19 4 -4 7 -2 7 5 0 7 5 9 10 6 14 -9 62 23 55 35 -4 6 -1
10 4 10 6 0 11 5 11 11 0 5 -5 7 -12 3 -7 -4 -8 -3 -4 4 4 7 13 12 19 12 7 0
23 38 36 84 26 94 102 274 149 354 17 28 29 52 27 52 -3 0 -29 -33 -58 -72z"/>
<path d="M2975 4728 c35 -68 78 -166 96 -218 29 -85 40 -102 99 -166 73 -77
118 -150 145 -233 11 -35 20 -49 25 -40 11 16 101 -50 185 -136 57 -59 64 -62
147 -83 48 -12 94 -22 103 -22 33 0 -174 239 -262 303 -21 15 -61 45 -88 65
-28 20 -85 53 -127 72 l-76 35 -42 105 c-51 127 -122 254 -201 361 -32 43 -61
79 -63 79 -3 0 24 -55 59 -122z"/>
<path d="M810 4664 c0 -4 91 -125 136 -180 15 -18 24 -18 24 2 0 8 -36 53 -80
99 -44 46 -80 81 -80 79z"/>
<path d="M12098 4576 c-52 -57 -85 -112 -75 -122 2 -2 30 33 63 78 95 131 97
139 12 44z"/>
<path d="M9805 4340 c-3 -5 -12 -7 -19 -4 -9 3 -15 -4 -18 -21 -8 -38 4 -37
29 1 12 19 20 34 18 34 -2 0 -6 -4 -10 -10z"/>
<path d="M9740 4310 c-13 -8 -12 -10 3 -10 9 0 17 5 17 10 0 12 -1 12 -20 0z"/>
<path d="M9711 4288 c0 -9 -3 -22 -4 -30 -2 -7 -2 -10 0 -7 2 4 12 5 21 2 12
-3 18 2 19 16 1 12 -3 21 -8 21 -6 0 -8 -4 -4 -9 3 -5 1 -12 -4 -15 -5 -4 -12
4 -14 16 -2 14 -5 16 -6 6z"/>
<path d="M9660 4270 c-11 -11 -18 -25 -15 -30 4 -6 -2 -7 -12 -3 -17 6 -17 5
1 -15 21 -24 5 -31 -16 -8 -16 17 -49 2 -88 -40 -14 -15 -41 -39 -61 -53 -68
-50 -252 -272 -237 -287 3 -2 47 6 97 18 92 22 93 23 147 85 30 34 89 90 132
124 54 44 80 72 89 98 14 41 16 67 3 36 -6 -14 -8 -4 -5 32 4 60 -6 72 -35 43z
m-35 -72 c15 -7 25 -19 24 -32 0 -20 -1 -20 -9 2 -12 27 -24 29 -15 2 4 -12 2
-20 -6 -20 -6 0 -17 -7 -24 -16 -10 -15 -12 -15 -18 -1 -4 10 2 17 18 21 17 4
22 11 18 26 -3 11 -12 20 -20 20 -12 0 -13 -3 -4 -14 9 -11 9 -16 0 -22 -7 -4
-9 -3 -5 4 3 5 1 12 -6 14 -13 5 -3 28 12 28 5 0 21 -5 35 -12z m-93 -56 c-7
-2 -10 -7 -8 -11 3 -4 -4 -7 -14 -8 -17 -2 -17 0 -3 17 9 11 21 16 27 13 6 -4
6 -8 -2 -11z m113 -12 c-3 -5 -12 -7 -20 -3 -21 7 -19 13 6 13 11 0 18 -4 14
-10z"/>
<path d="M9710 4230 c0 -5 5 -10 11 -10 5 0 7 5 4 10 -3 6 -8 10 -11 10 -2 0
-4 -4 -4 -10z"/>
<path d="M954 4065 c-18 -13 -18 -14 4 -8 12 3 25 9 28 14 8 14 -10 11 -32 -6z"/>
<path d="M950 4040 c-12 -7 -10 -9 8 -7 12 0 22 5 22 9 0 11 -12 10 -30 -2z"/>
<path d="M1972 3084 c-7 -8 -8 -14 -3 -14 10 0 25 19 20 25 -2 1 -10 -3 -17
-11z"/>
<path d="M5309 1649 c-227 -149 -549 -416 -549 -455 0 -52 84 -161 152 -195
67 -34 90 -27 176 54 230 214 537 429 812 568 l105 54 -215 11 c-118 7 -253
15 -301 19 l-85 6 -95 -62z m-396 -496 c49 -31 80 -80 66 -105 -13 -24 -29
-23 -68 6 -44 33 -81 85 -81 114 0 20 3 22 23 16 12 -4 39 -18 60 -31z"/>
<path d="M7210 1688 c-85 -4 -211 -12 -280 -16 l-125 -7 50 -19 c86 -32 348
-161 451 -221 219 -129 423 -281 599 -449 l90 -85 -3997 -1 -3998 0 0 -445 0
-445 6500 0 6500 0 0 445 0 445 -2482 0 -2483 0 45 26 c59 33 87 59 121 113
44 69 40 96 -28 162 -160 154 -395 325 -629 458 -101 57 -74 54 -334 39z m968
-600 c7 -37 -133 -157 -156 -134 -10 11 47 114 76 137 30 23 75 22 80 -3z
m-7398 -589 l0 -200 -32 3 -33 3 -3 185 c-1 101 0 190 2 197 3 7 19 13 36 13
l30 0 0 -201z m-115 106 c24 -23 25 -30 25 -149 0 -68 3 -131 6 -140 5 -13 -1
-16 -29 -16 -19 0 -37 6 -40 13 -4 10 -7 10 -18 0 -7 -7 -28 -13 -46 -13 -44
0 -68 35 -60 91 6 46 25 71 78 101 41 23 55 51 33 68 -17 15 -34 4 -34 -21 0
-15 -7 -19 -35 -19 -32 0 -35 2 -35 30 0 46 39 80 90 80 30 0 47 -6 65 -25z
m273 19 c41 -11 52 -51 52 -194 l0 -130 -29 0 c-16 0 -31 6 -34 13 -4 10 -7
10 -18 0 -19 -18 -69 -16 -91 4 -23 20 -24 90 -3 121 9 12 36 36 61 53 34 23
44 36 42 52 -4 32 -36 34 -44 3 -5 -22 -12 -26 -41 -26 -34 0 -34 1 -28 33 12
60 66 89 133 71z m162 -9 c17 21 57 19 72 -4 12 -19 12 -19 36 0 30 23 55 24
76 3 13 -13 16 -42 16 -165 l0 -149 -30 0 -30 0 -1 110 c-1 61 -3 115 -4 120
-1 6 -3 17 -4 25 -1 20 -27 19 -35 -1 -3 -9 -6 -69 -6 -135 l0 -119 -35 0 -34
0 -3 133 c-3 109 -6 132 -18 132 -12 0 -15 -23 -18 -132 l-3 -133 -34 0 -35 0
0 159 0 160 28 3 c15 2 32 -2 38 -9 9 -11 14 -10 24 2z m292 -124 c3 -118 4
-126 23 -126 19 0 20 8 23 128 l3 127 34 0 35 0 0 -180 c0 -111 -4 -188 -11
-204 -13 -28 -35 -36 -106 -36 -52 0 -53 0 -53 30 0 27 3 30 34 30 49 0 66 9
66 35 0 22 -2 23 -25 11 -38 -20 -72 -9 -84 27 -11 29 -16 279 -6 289 3 2 18
3 35 0 l29 -4 3 -127z m9873 89 c0 -27 -4 -50 -10 -50 -5 0 -10 23 -10 50 0
28 5 50 10 50 6 0 10 -22 10 -50z m470 0 c0 -27 -4 -50 -10 -50 -5 0 -10 23
-10 50 0 28 5 50 10 50 6 0 10 -22 10 -50z m93 38 c7 -7 12 -24 12 -38 0 -34
-17 -50 -52 -50 -27 0 -28 2 -28 50 0 48 1 50 28 50 15 0 33 -5 40 -12z m150
-29 l18 -42 14 42 c18 56 30 52 28 -11 -1 -47 -2 -49 -5 -13 l-4 39 -19 -39
-18 -40 -14 34 c-16 35 -31 30 -23 -8 2 -11 0 -21 -6 -21 -5 0 -9 23 -9 50 0
61 15 64 38 9z m149 29 c-2 -7 -10 -30 -18 -50 -7 -21 -17 -38 -21 -38 -5 0
-1 16 7 36 20 48 19 52 -7 57 -16 3 -13 5 11 6 23 1 32 -3 28 -11z m43 -8 c0
-30 47 -28 53 3 2 12 4 -3 4 -33 0 -30 -2 -43 -4 -27 -3 21 -10 27 -29 27 -19
0 -24 -5 -24 -25 0 -14 -4 -25 -10 -25 -5 0 -10 23 -10 50 0 28 5 50 10 50 6
0 10 -9 10 -20z m110 8 l-25 -10 23 -9 c28 -11 38 -35 22 -54 -14 -16 -50 -21
-50 -6 0 5 8 7 19 4 11 -3 21 2 25 12 8 22 -1 35 -25 35 -12 0 -19 7 -19 20 0
15 6 20 28 19 l27 0 -25 -11z m115 -38 c0 -43 -1 -45 -32 -48 l-33 -3 0 51 0
51 33 -3 c31 -3 32 -5 32 -48z m78 43 c-52 -10 -53 -76 -1 -86 22 -4 22 -4 -2
-6 -33 -1 -50 16 -50 49 0 33 17 50 50 49 22 -2 22 -2 3 -6z m-1076 -58 l1
-40 -6 35 c-4 22 -13 35 -22 35 -9 0 -17 -13 -21 -35 l-6 -35 -2 38 c-1 24 -6
37 -15 37 -8 0 -18 -17 -24 -37 l-10 -38 -1 41 -1 41 53 -1 52 -1 2 -40z m81
4 c3 -34 1 -36 -25 -35 -35 1 -46 35 -14 43 26 7 27 20 4 27 -11 3 -7 4 7 3
21 -2 25 -8 28 -38z m83 -14 c-3 -60 -6 -65 -34 -64 l-22 0 23 9 c12 5 22 15
22 23 0 8 -10 13 -22 13 -17 -1 -24 5 -26 22 -6 38 5 54 35 50 26 -3 27 -5 24
-53z m87 33 c3 -14 -3 -18 -23 -18 -33 0 -29 -21 6 -32 22 -6 21 -7 -6 -5 -23
2 -31 7 -33 25 -2 13 -1 30 2 38 8 21 50 14 54 -8z m232 12 c0 -5 -4 -10 -10
-10 -5 0 -10 5 -10 10 0 6 5 10 10 10 6 0 10 -4 10 -10z m0 -60 c0 -5 -4 -10
-10 -10 -5 0 -10 5 -10 10 0 6 5 10 10 10 6 0 10 -4 10 -10z m-120 -190 c0
-47 -3 -60 -15 -60 -12 0 -15 13 -15 60 0 47 3 60 15 60 12 0 15 -13 15 -60z
m-580 10 c0 -11 5 -20 10 -20 6 0 10 9 10 21 0 29 32 21 41 -11 l6 -25 8 28
c7 28 25 38 25 13 0 -27 -22 -76 -35 -76 -7 0 -16 15 -20 33 l-7 32 -9 -32
c-13 -46 -34 -41 -46 12 -8 36 -8 45 3 45 8 0 14 -9 14 -20z m140 0 c0 -11 5
-20 10 -20 6 0 10 9 10 21 0 29 32 21 41 -11 l6 -25 8 28 c7 28 25 38 25 13 0
-27 -22 -76 -35 -76 -7 0 -16 15 -20 33 l-8 32 -6 -30 c-10 -48 -36 -43 -48
10 -8 36 -8 45 3 45 8 0 14 -9 14 -20z m140 0 c0 -11 5 -20 10 -20 6 0 10 9
10 21 0 29 32 21 41 -11 l6 -25 8 28 c7 28 25 38 25 13 0 -27 -22 -76 -35 -76
-7 0 -16 15 -20 33 l-8 32 -6 -30 c-10 -48 -36 -43 -48 10 -8 36 -8 45 3 45 8
0 14 -9 14 -20z m235 10 c3 -5 7 -25 8 -43 3 -33 2 -34 -32 -33 -31 1 -36 4
-36 26 0 17 7 26 25 31 24 7 24 7 3 8 -13 1 -23 6 -23 11 0 13 47 13 55 0z
m153 -35 c3 -40 2 -41 -30 -40 -28 0 -33 4 -33 25 0 17 7 26 25 31 24 7 24 7
3 8 -13 1 -23 6 -23 12 0 6 12 9 28 7 24 -3 27 -8 30 -43z m159 32 c13 -22 11
-77 -3 -77 -9 0 -14 12 -14 36 0 45 -24 42 -28 -4 -2 -18 -7 -32 -12 -32 -5 0
-10 14 -12 32 -4 46 -28 49 -28 4 0 -25 -4 -36 -15 -36 -11 0 -15 12 -15 44
l0 43 60 0 c33 0 63 -5 67 -10z m58 -14 l8 -28 10 28 c6 15 17 27 25 27 10 0
12 -6 7 -17 -4 -10 -14 -37 -22 -61 -15 -42 -37 -62 -51 -47 -4 4 -1 10 6 12
16 6 15 42 -3 73 -18 32 -18 40 -1 40 8 0 17 -12 21 -27z m175 18 c0 -5 -9
-11 -20 -14 -11 -3 -20 -13 -20 -22 0 -9 9 -19 20 -22 23 -6 27 -23 6 -23 -31
0 -46 13 -46 39 0 15 5 32 12 39 14 14 48 16 48 3z m90 -5 c28 -35 -11 -93
-47 -70 -36 22 -23 84 17 84 10 0 23 -7 30 -14z m157 0 c13 -21 11 -76 -3 -76
-9 0 -14 12 -14 36 0 45 -24 42 -28 -4 -2 -18 -7 -32 -12 -32 -5 0 -10 14 -12
32 -4 46 -28 49 -28 4 0 -25 -4 -36 -15 -36 -11 0 -15 12 -15 44 l0 43 60 0
c33 0 64 -5 67 -11z m-886 -69 c-13 -13 -26 -3 -16 12 3 6 11 8 17 5 6 -4 6
-10 -1 -17z m550 0 c-13 -13 -26 -3 -16 12 3 6 11 8 17 5 6 -4 6 -10 -1 -17z"/>
<path d="M597 432 c-30 -31 -35 -60 -12 -68 24 -10 41 12 43 56 2 22 1 40 -1
40 -2 0 -15 -13 -30 -28z"/>
<path d="M894 438 c-30 -33 -35 -44 -28 -62 8 -20 43 -21 50 -2 3 8 4 31 2 51
l-3 37 -21 -24z"/>
<path d="M11780 580 c0 -33 3 -41 16 -38 9 2 22 11 28 21 13 20 -2 50 -28 55
-13 3 -16 -5 -16 -38z"/>
<path d="M12350 605 c0 -10 7 -15 18 -13 21 4 19 22 -2 26 -10 2 -16 -3 -16
-13z"/>
<path d="M12350 560 c0 -15 5 -20 18 -18 9 2 17 10 17 18 0 8 -8 16 -17 18
-13 2 -18 -3 -18 -18z"/>
<path d="M11430 555 c0 -8 7 -15 15 -15 8 0 15 7 15 15 0 8 -7 15 -15 15 -8 0
-15 -7 -15 -15z"/>
<path d="M11514 586 c-8 -22 3 -49 19 -43 6 2 12 14 12 27 0 27 -22 39 -31 16z"/>
<path d="M11605 590 c-3 -5 3 -10 15 -10 12 0 18 5 15 10 -3 6 -10 10 -15 10
-5 0 -12 -4 -15 -10z"/>
<path d="M11657 333 c-12 -11 -8 -23 8 -23 8 0 15 7 15 15 0 16 -12 20 -23 8z"/>
<path d="M11807 333 c-12 -11 -8 -23 8 -23 8 0 15 7 15 15 0 16 -12 20 -23 8z"/>
<path d="M12283 344 c-8 -21 13 -42 28 -27 13 13 5 43 -11 43 -6 0 -13 -7 -17
-16z"/>
</g>
</svg>
