<?xml version="1.0" standalone="no"?>
<!DOCTYPE svg PUBLIC "-//W3C//DTD SVG 20010904//EN"
 "http://www.w3.org/TR/2001/REC-SVG-20010904/DTD/svg10.dtd">
<svg version="1.0" xmlns="http://www.w3.org/2000/svg"
 width="626.000000pt" height="626.000000pt" viewBox="0 0 626.000000 626.000000"
 preserveAspectRatio="xMidYMid meet">

<g transform="translate(0.000000,626.000000) scale(0.100000,-0.100000)"
fill="#000000" stroke="none">
<path d="M0 3130 l0 -3130 3130 0 3130 0 0 3130 0 3130 -3130 0 -3130 0 0
-3130z m2600 1470 c-9 -5 -13 -83 -16 -291 -3 -156 -7 -291 -10 -299 -3 -8 -7
-35 -10 -60 l-4 -45 25 28 c14 16 22 33 19 39 -4 7 -2 8 4 4 8 -5 9 -13 3 -24
-15 -28 -59 -65 -70 -58 -5 4 -13 1 -17 -5 -4 -8 -3 -9 4 -5 7 4 12 3 12 -2 0
-11 -223 -229 -270 -264 -111 -81 -274 -44 -347 79 -24 40 -28 59 -28 118 0
48 6 81 19 105 23 44 690 714 695 699 2 -6 -2 -15 -9 -19z m1290 -700 c0 -5
-5 -10 -11 -10 -5 0 -7 5 -4 10 3 6 8 10 11 10 2 0 4 -4 4 -10z m-9 -98 c4
-39 14 -85 23 -103 9 -17 13 -36 9 -42 -3 -5 -1 -7 4 -4 7 5 13 -34 17 -111 4
-64 9 -130 12 -147 4 -22 3 -26 -5 -15 -9 12 -11 12 -17 -3 -3 -9 -4 -23 -1
-31 3 -7 -3 -28 -14 -45 l-19 -31 28 17 c15 10 35 27 44 38 10 11 17 16 18 11
0 -6 -78 -88 -172 -184 -187 -189 -235 -222 -318 -222 -77 0 -119 18 -175 73
-82 83 -98 194 -41 291 31 53 572 589 588 584 8 -3 15 -32 19 -76z m159 -415
c0 -2 -12 -14 -27 -28 l-28 -24 24 28 c23 25 31 32 31 24z m-629 -836 c17 -18
29 -40 29 -56 0 -40 -50 -85 -95 -85 -42 0 -90 22 -99 45 -17 46 0 100 37 115
47 19 97 11 128 -19z m-231 -301 l0 -270 -74 0 c-41 0 -77 4 -80 9 -3 5 -23 3
-43 -5 -21 -7 -47 -13 -58 -14 -66 -1 -149 51 -182 114 -25 48 -23 151 5 203
33 63 91 98 161 98 31 0 66 -4 79 -8 22 -8 22 -7 22 67 l0 76 85 0 85 0 0
-270z m-1050 113 c28 -16 60 -42 71 -60 l21 -32 -64 -32 -65 -32 -26 27 c-30
30 -57 33 -85 9 -20 -18 -25 -36 -23 -80 3 -54 75 -72 112 -29 l21 25 64 -32
c35 -17 64 -35 64 -39 0 -4 -16 -26 -36 -48 -111 -123 -352 -67 -394 91 -13
48 -6 97 21 150 50 99 209 139 319 82z m423 11 c58 -20 123 -88 133 -139 3
-20 4 -59 2 -86 -18 -181 -301 -239 -422 -86 -23 29 -31 50 -34 96 -5 76 9
118 56 164 65 64 169 84 265 51z m1294 -3 c70 -32 83 -71 83 -246 l0 -146 -82
3 -83 3 -3 120 c-2 98 -5 122 -19 133 -24 17 -40 15 -63 -8 -18 -18 -20 -33
-20 -135 l0 -115 -85 0 -85 0 0 200 0 200 80 0 c62 0 80 -3 80 -14 0 -11 8
-10 37 5 47 24 106 24 160 0z m411 -1 c39 -24 43 -25 36 -5 -5 13 8 15 80 15
l86 0 0 -159 c0 -87 -5 -182 -10 -212 -23 -120 -96 -174 -240 -174 -81 0 -181
23 -195 45 -3 5 7 33 22 64 l27 55 29 -16 c17 -8 55 -17 86 -20 61 -6 93 11
106 54 l6 21 -38 -19 c-80 -41 -191 -6 -238 75 -24 41 -27 55 -23 115 3 55 9
75 30 103 55 72 168 100 236 58z m-838 -190 l0 -200 -85 0 -85 0 0 200 0 200
85 0 85 0 0 -200z"/>
<path d="M2306 3921 c-5 -7 -11 -63 -14 -125 -3 -73 -10 -119 -20 -133 -21
-34 -3 -27 46 15 40 35 43 41 49 103 7 81 -2 136 -22 136 -9 0 -16 -11 -16
-26 -1 -21 -3 -19 -8 9 -4 25 -9 31 -15 21z"/>
<path d="M2920 2242 c-15 -12 -22 -29 -22 -54 0 -55 17 -78 56 -78 40 0 55 16
63 63 4 29 1 40 -20 61 -31 31 -47 32 -77 8z"/>
<path d="M2420 2240 c-26 -26 -27 -90 -2 -113 24 -22 65 -21 85 1 38 42 8 132
-43 132 -11 0 -29 -9 -40 -20z"/>
<path d="M4182 2244 c-25 -17 -29 -60 -9 -88 19 -26 76 -24 99 4 24 30 23 46
-7 75 -28 29 -51 31 -83 9z"/>
</g>
</svg>
